<svg aria-hidden="true" style="width:0;height:0;position:absolute;overflow:hidden" xmlns="http://www.w3.org/2000/svg"><defs><symbol id="example-sticker-mob" viewBox="0 0 32 32"><path fill="#fc4a02" style="fill:var(--color1,#fc4a02)" d="M16 32c8.837 0 16-7.163 16-16S24.837 0 16 0 0 7.163 0 16s7.163 16 16 16z"/><path fill="none" stroke="#ece842" style="stroke:var(--color2,#ece842)" stroke-miterlimit="10" stroke-width=".538" d="M19.226 21.034c1.642-.352 2.448-3.094 1.795-6.118-.653-3.027-2.512-5.194-4.157-4.842-1.642.355-2.445 3.094-1.792 6.122.65 3.027 2.509 5.194 4.154 4.838z"/><path fill="#ece842" style="fill:var(--color2,#ece842)" d="M17.606 19.258c.557-.17.733-1.206.394-2.32-.339-1.11-1.066-1.875-1.619-1.706-.557.17-.733 1.21-.394 2.32s1.066 1.875 1.619 1.706z"/><path fill="none" stroke="#ece842" style="stroke:var(--color2,#ece842)" stroke-miterlimit="10" stroke-width=".538" d="M16.506 19.542c-.282 1.328-.941 2.282-1.862 2.477-1.645.352-3.504-1.811-4.157-4.838-.65-3.024.154-5.766 1.795-6.118.893-.192 1.85.355 2.64 1.386"/><path fill="#ece842" style="fill:var(--color2,#ece842)" d="M13.024 20.243c.557-.17.733-1.206.394-2.32-.339-1.11-1.066-1.872-1.622-1.702-.554.17-.73 1.206-.39 2.317.339 1.114 1.066 1.875 1.619 1.706z"/><path fill="#f1fa3c" style="fill:var(--color3,#f1fa3c)" d="M8.176 9.67 6.72 8.288 7.84 7.11l1.453 1.379-.234.246-1.226-1.168-.656.694 1.226 1.165-.234.243zm1.462-1.459L8.48 6.573l.678-.48c.038-.025.083-.052.13-.076l.008-.004a.603.603 0 0 1 .301-.074.524.524 0 0 1 .266.086c.17.113.293.284.344.484l.001.006a.545.545 0 0 1-.176.543l-.001.001-.064.051-.058.048-.403.288.406.57-.275.192zm-.31-1.024.39-.275.051-.038.045-.048a.265.265 0 0 0 .064-.136v-.001a.317.317 0 0 0-.013-.134.334.334 0 0 0-.058-.118.428.428 0 0 0-.095-.095l-.001-.001a.264.264 0 0 0-.276-.041l.002-.001-.058.026-.051.035-.394.278.39.55zm3.296-.669-.31.141-.576-1.29-.275 1.67-.31.141-.819-1.83.31-.141.576 1.293.275-1.674.31-.138.819 1.83zm.422-.131-.451-1.952.326-.08.208.906.573-1.088.4-.09-.618 1.152 1.13.787-.416.096-1.037-.723.211.912-.326.077v.003zm1.674-.381-.01-.282a.359.359 0 0 0 .112-.013.14.14 0 0 0 .074-.061.34.34 0 0 0 .051-.122c.032-.154.061-.345.078-.539l.002-.021.029-.368.01-.339.006-.272 1.344-.045.064 2.006-.336.01-.054-1.69-.698.022-.01.224c0 .09-.006.186-.013.288l-.026.32-.042.32a1.773 1.773 0 0 1-.061.266c-.022.077-.054.141-.096.192s-.099.088-.164.105h-.002a.6.6 0 0 1-.262 0h.003zm2.061-.044.954-1.875.486.08.294 2.083-.342-.054-.272-1.869.074.01-.854 1.683-.339-.058zm.416-.375.051-.307 1.04.173-.051.307-1.04-.173zm1.465 1.037.24-.602a.29.29 0 0 0 .17.016.375.375 0 0 0 .147-.086.66.66 0 0 0 .134-.166c.042-.064.083-.138.122-.214l.15-.301.144-.31.166-.349 1.216.486-.624 1.568.138.058-.237.605-.314-.125.125-.31-1.139-.451-.125.31-.31-.122v-.003zm.727-.41.822.33.506-1.28-.618-.25-.115.25a5.177 5.177 0 0 1-.371.73l.013-.023a.621.621 0 0 1-.237.245l-.003.002zm2.051 1.287 1.261-1.558.259.211-1.062 1.312.48.39 1.066-1.312.259.211-1.062 1.312.483.39 1.062-1.312.262.211-1.264 1.558L21.437 7.5zm1.933 1.645 1.971-.73.301.384-1.197 1.731-.211-.272 1.069-1.558.048.061-1.77.656-.211-.272zm.56.012.246-.192.646.832-.25.192-.643-.832zm.665 1.642 1.786-.915.608 1.194-.278.144-.458-.896-.384.195.224.438.032.07.032.077a.546.546 0 0 1-.084.555l.001-.001c-.064.074-.138.138-.234.186a.749.749 0 0 1-.33.085.526.526 0 0 1-.452-.255l-.001-.002-.045-.07-.038-.064-.378-.739zm.436.154.218.429.064.109a.237.237 0 0 0 .186.099h.004a.4.4 0 0 0 .328-.171l.001-.001c.038-.054.045-.125.026-.205a.331.331 0 0 0-.023-.063l.001.002-.026-.058-.221-.429-.557.288zm.281 1.228.269-.08c.01.045.022.077.042.102a.154.154 0 0 0 .076.06h.001c.032.01.077.016.134.016.211-.013.405-.036.595-.069l-.032.005.358-.07c.118-.022.227-.051.333-.074l.269-.064.384 1.286-1.92.579-.096-.32 1.619-.49-.202-.666-.224.048-.275.061a6.878 6.878 0 0 1-.602.099l-.038.004c-.096.01-.192.013-.269.01a.532.532 0 0 1-.211-.045.305.305 0 0 1-.143-.127l-.001-.001a.578.578 0 0 1-.067-.255v-.011zm.627 2.97a.966.966 0 0 1 .09-.525.845.845 0 0 1 .336-.358 1.2 1.2 0 0 1 .531-.16h.003c.208-.019.39.003.557.064.33.125.561.434.57.799v.001a.95.95 0 0 1-.092.53l.003-.006a.866.866 0 0 1-.332.359l-.004.002c-.15.09-.33.144-.534.16a1.213 1.213 0 0 1-.562-.07l.008.003a.876.876 0 0 1-.57-.799v-.001h-.003zm.317-.029a.53.53 0 0 0 .39.509c.112.032.243.045.384.032a.973.973 0 0 0 .383-.099l-.006.003c.106-.054.186-.128.237-.224s.074-.211.064-.346a.56.56 0 0 0-.119-.328l.001.001a.546.546 0 0 0-.268-.178l-.004-.001c-.115-.032-.24-.045-.387-.032a.973.973 0 0 0-.383.099l.006-.003a.545.545 0 0 0-.297.57v-.003zm-.214 1.312 1.99.246-.042.336-.838-.106-.118.944.838.102-.042.333-1.99-.246.045-.333.838.102.115-.941-.838-.106.042-.333zm-.263 1.901 1.702 1.238-.157.467-2.102-.035.109-.33 1.888.029-.022.074-1.526-1.11.109-.33zm.301.474.294.099-.333.998-.298-.099.336-.998zm-1.645 2.63 1.606 1.2-.202.269-.746-.557.266 1.2-.246.33-.272-1.28-1.37.125.256-.342 1.254-.115-.749-.563.202-.269v.003zm-1.718 1.933a.868.868 0 0 1 .966-.199l-.006-.002c.16.064.31.176.448.33.141.154.237.314.285.48a.866.866 0 0 1-.286.933l-.002.001c-.15.134-.304.218-.47.253a.847.847 0 0 1-.493-.051 1.254 1.254 0 0 1-.454-.323 1.234 1.234 0 0 1-.279-.471l-.002-.009a.85.85 0 0 1-.001-.502l-.002.006c.045-.16.144-.307.291-.448l.003.003zm.211.237a.625.625 0 0 0-.189.291c-.026.106-.019.214.022.326s.109.221.211.33a.94.94 0 0 0 .307.237.596.596 0 0 0 .32.051.592.592 0 0 0 .314-.16c.096-.09.16-.186.186-.291s.019-.214-.022-.32a1.056 1.056 0 0 0-.209-.334l.001.001a.998.998 0 0 0-.302-.234l-.006-.003a.54.54 0 0 0-.323-.051h.003a.588.588 0 0 0-.31.16l-.003-.003zm-1.005.521.144.24a.294.294 0 0 0-.089.07.144.144 0 0 0-.035.086c-.006.035 0 .08.013.131.11.34.23.626.368.9l-.016-.036c.048.109.099.211.15.304l.128.246-1.155.685-1.024-1.728.288-.173.864 1.456.598-.355-.102-.202a8.534 8.534 0 0 1-.219-.459l-.037-.092a6.516 6.516 0 0 1-.118-.304c-.032-.096-.061-.179-.077-.256a.55.55 0 0 1-.006-.221v.003c.013-.064.045-.125.096-.173s.128-.093.23-.128v.003zm-1.974 1.075.758 1.856-.31.128-.758-1.856.31-.128zm-.765.317.502 1.939-.803.211c-.019.003-.045.006-.074.016l-.083.01a.544.544 0 0 1-.527-.213l-.001-.001a.76.76 0 0 1-.127-.273l-.001-.005a.822.822 0 0 1-.022-.304c.016-.096.051-.186.109-.262s.141-.134.246-.182l.083-.032.07-.019.48-.122-.179-.678.326-.083zm-.07 1.066-.464.118-.064.019a.22.22 0 0 0-.055.029h.001a.264.264 0 0 0-.108.104l-.001.001a.3.3 0 0 0-.038.127v.001a.436.436 0 0 0 .067.259.288.288 0 0 0 .095.095l.001.001a.25.25 0 0 0 .147.042c.022 0 .042 0 .064-.01l.064-.013.461-.122-.17-.653zm-2.368-.538-.07 2.003-.336-.01.064-1.693-.621-.019-.064 1.69-.333-.013.064-1.69-.624-.022-.061 1.69-.333-.01.07-2.006 2.246.083zm-2.663-.189-.518 1.936-.8-.211a.902.902 0 0 1-.157-.054l.006.003a.622.622 0 0 1-.249-.184l-.001-.001a.523.523 0 0 1-.102-.26v-.002a.713.713 0 0 1 .026-.304.765.765 0 0 1 .128-.278.59.59 0 0 1 .224-.173.586.586 0 0 1 .304-.038c.026.003.054.006.086.016l.07.016.477.128.182-.678.323.086zm-.582.89-.461-.125-.061-.013a.187.187 0 0 0-.042-.004l-.023.001h.001-.015a.26.26 0 0 0-.133.036l.001-.001a.365.365 0 0 0-.096.096.408.408 0 0 0-.067.257v-.001c0 .045.013.09.032.134a.297.297 0 0 0 .168.127l.002.001c.022.01.042.016.064.019l.461.125.176-.656h-.006zM10.88 24.65l.301.147-.621 1.27 1.459-.864.304.15-.88 1.802-.304-.147.621-1.27-1.459.864-.304-.15.883-1.802zm-.902-.64-.176.224c.096.051.17.115.224.192a.6.6 0 0 1 .115.262.677.677 0 0 1-.022.307c-.032.109-.09.218-.176.33s-.179.192-.275.253a.697.697 0 0 1-.359.102.613.613 0 0 1-.463-.21l-.001-.001-.096.128-.262-.208.096-.125a.653.653 0 0 1-.223-.19l-.001-.002a.569.569 0 0 1-.109-.266.755.755 0 0 1 .022-.31c.032-.109.093-.221.176-.33a.947.947 0 0 1 .275-.25.608.608 0 0 1 .291-.096.528.528 0 0 1 .282.042c.093.035.17.093.243.173l.173-.224.262.202zm-.628.265a.412.412 0 0 0-.17-.114l-.003-.001a.288.288 0 0 0-.171-.003h.002a.407.407 0 0 0-.154.08.777.777 0 0 0-.228.29l-.002.005a.472.472 0 0 0-.045.179.33.33 0 0 0 .038.173.333.333 0 0 0 .15.141l.582-.749zm.263.205-.582.749a.354.354 0 0 0 .173.115.338.338 0 0 0 .17 0 .489.489 0 0 0 .16-.086.877.877 0 0 0 .235-.299l.002-.005a.423.423 0 0 0 .042-.173v-.005a.31.31 0 0 0-.042-.157l.001.001a.41.41 0 0 0-.154-.138l-.003-.003zm-1.021-1.728-1.27 1.12.432.49-.237.208-1.082-1.222.237-.211.429.486 1.267-1.12.224.253zM6.96 20.406l.173.294-1.216.72 1.69.08.173.291-1.728 1.021-.173-.294 1.216-.717-1.69-.083-.173-.291 1.728-1.024v.003zm.173-.544-.141.038a.144.144 0 0 0-.057-.086.132.132 0 0 0-.093-.019h.001a.409.409 0 0 0-.106.035l.067.166-.333.134-.128-.32.346-.138c.112-.048.208-.054.288-.022.077.032.131.102.157.211zm-.976-2.182c.029.16.019.304-.026.432s-.118.24-.224.33a.8.8 0 0 1-.39.17l-1.238.214-.064-.333 1.238-.211a.492.492 0 0 0 .322-.2l.001-.002a.466.466 0 0 0 .066-.346v.003a.48.48 0 0 0-.178-.303l-.001-.001a.454.454 0 0 0-.374-.076l.003-.001-1.235.211-.061-.336 1.245-.211a.76.76 0 0 1 .426.029.721.721 0 0 1 .32.234.915.915 0 0 1 .166.4h.003zm-.179-1.283-2.006.048-.006-.336 2.006-.048.01.333v.003z"/><path fill="#ebe845" style="fill:var(--color4,#ebe845)" d="m5.11 15.347-.234-.019c.188-2.193.985-4.17 2.219-5.797l-.02.028.186.138a10.795 10.795 0 0 0-2.151 5.611l-.003.04h.003z"/></symbol><symbol id="main-sticker-mob" viewBox="0 0 51 32"><path fill="#fc4a02" style="fill:var(--color1,#fc4a02)" d="M47.46 14.288c.598 7.806-9.3 14.929-22.107 15.91S1.679 25.646 1.081 17.84c-.598-7.806 9.3-14.929 22.107-15.91S46.862 6.482 47.46 14.288z"/><path fill="#f1fa3c" style="fill:var(--color3,#f1fa3c)" d="m16.381 12.731-.069-.945.891-.8.762-.061.392 5.105-.838.061-.312-4.08-.823.724zm3.463 2.568a2.765 2.765 0 0 1-.842-1.88v-.005a2.766 2.766 0 0 1 .55-1.999l-.005.007a2.196 2.196 0 0 1 1.612-.887h.007a2.19 2.19 0 0 1 1.733.632c.494.481.81 1.144.838 1.881v.005a2.763 2.763 0 0 1-.546 1.995l.005-.007a2.196 2.196 0 0 1-1.612.887h-.007a2.187 2.187 0 0 1-1.734-.629zm.343-3.387c-.255.354-.358.83-.309 1.432.046.602.217 1.059.522 1.371.305.305.678.442 1.116.411a1.334 1.334 0 0 0 1.029-.575l.003-.004c.259-.35.362-.83.316-1.432s-.221-1.059-.533-1.368a1.332 1.332 0 0 0-1.11-.411h.006c-.438.03-.785.229-1.044.575zm5.051 2.972a2.766 2.766 0 0 1-.838-1.881v-.005a2.755 2.755 0 0 1 .546-1.999l-.005.007a2.19 2.19 0 0 1 1.612-.883h.007a2.187 2.187 0 0 1 1.734.629c.494.481.81 1.144.838 1.881v.005a2.755 2.755 0 0 1-.546 1.999l.005-.007a2.196 2.196 0 0 1-1.612.887h-.007a2.19 2.19 0 0 1-1.733-.632zm.343-3.383c-.251.35-.354.83-.309 1.432s.221 1.059.522 1.368a1.36 1.36 0 0 0 1.116.411c.428-.022.8-.243 1.029-.571l.003-.004c.259-.354.362-.83.316-1.432-.046-.606-.221-1.059-.53-1.371a1.333 1.333 0 0 0-1.115-.41l.006-.001a1.362 1.362 0 0 0-1.04.579zm4.369 1.733-.05-.693 1.128-.088-.088-1.128.693-.053.088 1.128 1.128-.084.053.693-1.128.084.088 1.131-.693.053-.088-1.131-1.131.088zM8.469 21.276a.961.961 0 0 1-.969-.472l-.002-.005c-.099-.168-.152-.362-.171-.59s.008-.43.076-.61a.993.993 0 0 1 .335-.43 1.08 1.08 0 0 1 .556-.19 1.028 1.028 0 0 1 .652.147l-.004-.003a.995.995 0 0 1 .396.484l-.362.133a.652.652 0 0 0-.242-.319l-.002-.001a.606.606 0 0 0-.411-.091.647.647 0 0 0-.366.126.604.604 0 0 0-.198.297 1.175 1.175 0 0 0-.042.427c.011.164.046.301.103.419a.603.603 0 0 0 .248.259.626.626 0 0 0 .377.072.64.64 0 0 0 .392-.152.668.668 0 0 0 .19-.354l.381.076a1.01 1.01 0 0 1-.315.54l-.001.001c-.16.137-.366.217-.621.236zm1.855-.19-.145-1.855-.712.053-.027-.343 1.798-.141.027.347-.716.053.145 1.859-.37.03zm2.263-.126a.961.961 0 0 1-.969-.472l-.002-.005c-.095-.164-.152-.362-.171-.59s.008-.43.076-.61a.993.993 0 0 1 .335-.43 1.08 1.08 0 0 1 .556-.19c.221-.015.411.019.579.103a.96.96 0 0 1 .392.377c.099.164.152.362.171.59s-.008.43-.08.61a.959.959 0 0 1-.329.429l-.003.002a1.08 1.08 0 0 1-.556.19zm-.027-.343a.688.688 0 0 0 .362-.13.61.61 0 0 0 .202-.297c.038-.126.053-.267.038-.427a1.054 1.054 0 0 0-.106-.425l.003.006a.643.643 0 0 0-.244-.259.697.697 0 0 0-.381-.076c-.145.011-.267.053-.358.13s-.16.171-.202.297c-.038.122-.053.267-.038.427.011.164.046.301.103.419a.643.643 0 0 0 .244.259.697.697 0 0 0 .381.076zm1.387.194-.171-2.206.914-.069a1.19 1.19 0 0 1 .18 0h-.004a.62.62 0 0 1 .53.332.93.93 0 0 1 .05.666.589.589 0 0 1-.168.259.656.656 0 0 1-.305.152 1.214 1.214 0 0 1-.172.023h-.003l-.541.042.057.773-.366.027zm.282-1.142.526-.038a.913.913 0 0 0 .147-.028l-.006.002a.28.28 0 0 0 .137-.095v-.001a.37.37 0 0 0 .065-.137.498.498 0 0 0-.024-.289l.001.003a.325.325 0 0 0-.084-.129.273.273 0 0 0-.151-.068h-.001a.77.77 0 0 0-.144 0h.003l-.526.038.057.743zm1.702.99-.168-2.206.37-.027.168 2.206-.37.027zm.827-.065-.168-2.202.37-.03.072.93 1.044-.08-.072-.93.37-.027.168 2.206-.37.027-.069-.93-1.048.076.076.933-.373.027zm3.147-.19a.961.961 0 0 1-.969-.472l-.002-.005a1.448 1.448 0 0 1-.171-.594c-.015-.229.011-.43.08-.61a.956.956 0 0 1 .331-.43 1.08 1.08 0 0 1 .556-.19c.221-.015.415.019.579.103s.297.21.392.377c.099.164.156.362.175.59.015.229-.011.43-.084.61a.959.959 0 0 1-.329.429l-.003.002a1.107 1.107 0 0 1-.556.19zm-.027-.351a.646.646 0 0 0 .362-.126.63.63 0 0 0 .202-.297c.038-.126.053-.267.042-.43a1.078 1.078 0 0 0-.11-.418l.003.006a.628.628 0 0 0-.244-.263.69.69 0 0 0-.377-.076.627.627 0 0 0-.362.13.604.604 0 0 0-.198.297 1.094 1.094 0 0 0-.042.427c.011.164.046.301.107.419a.609.609 0 0 0 .24.259c.103.057.229.08.381.076zm1.387.198-.171-2.206.37-.027.076 1.021.804-1.09.457-.038-.869 1.158 1.101 1.044-.469.038-1.01-.96.076 1.029-.366.03zm3.322-.209c-.156.011-.293 0-.415-.038a.875.875 0 0 1-.501-.366l-.002-.003.305-.236a.513.513 0 0 0 .312.266.68.68 0 0 0 .29.03.69.69 0 0 0 .263-.072.393.393 0 0 0 .145-.137.352.352 0 0 0 .034-.179c-.008-.076-.03-.133-.076-.175a.337.337 0 0 0-.177-.076h-.002a1.036 1.036 0 0 0-.223-.011h.003l-.121.007-.1.004h-.027l-.027-.347.057-.004.084-.008.072-.008a.59.59 0 0 0 .278-.103.246.246 0 0 0 .098-.195l-.002-.035v.001a.26.26 0 0 0-.121-.209l-.001-.001a.46.46 0 0 0-.282-.057.56.56 0 0 0-.452.275l-.001.003-.278-.244a.982.982 0 0 1 .713-.381h.003c.095-.008.19 0 .282.015a.84.84 0 0 1 .255.095.563.563 0 0 1 .274.46v.001c.008.103-.008.198-.038.286s-.076.16-.145.221c.103.03.183.084.24.16a.516.516 0 0 1 .103.297.596.596 0 0 1-.088.381.777.777 0 0 1-.293.265l-.004.002c-.126.065-.27.103-.434.114zm1.817-.183-.171-2.21 1.79-.133.168 2.206-.37.027-.141-1.859-1.051.08.145 1.859-.37.03zm3.15-.198a.961.961 0 0 1-.969-.472l-.002-.005a1.399 1.399 0 0 1-.171-.59c-.015-.229.011-.43.08-.61a.956.956 0 0 1 .331-.43 1.08 1.08 0 0 1 .556-.19c.221-.015.411.019.579.103.164.084.297.21.392.377.099.164.152.362.171.59s-.008.43-.076.61a.966.966 0 0 1-.332.429l-.003.002a1.08 1.08 0 0 1-.556.19zm-.026-.343a.679.679 0 0 0 .362-.13.61.61 0 0 0 .202-.297c.038-.126.053-.267.042-.43a1.078 1.078 0 0 0-.11-.418l.003.006a.628.628 0 0 0-.244-.263.69.69 0 0 0-.377-.076.627.627 0 0 0-.362.13.639.639 0 0 0-.202.297c-.038.122-.053.267-.038.427.011.164.046.301.103.419a.643.643 0 0 0 .244.259.697.697 0 0 0 .381.076zm1.386.191-.171-2.202.914-.069a1.19 1.19 0 0 1 .18 0h-.004.002c.232 0 .432.136.526.332l.002.003a.887.887 0 0 1 .05.659.568.568 0 0 1-.168.263.656.656 0 0 1-.305.152 1.214 1.214 0 0 1-.172.023h-.003l-.541.042.061.773-.37.027zm.282-1.143.526-.038a.913.913 0 0 0 .147-.028l-.006.002a.289.289 0 0 0 .137-.091.37.37 0 0 0 .065-.137.498.498 0 0 0-.024-.289l.001.003a.325.325 0 0 0-.084-.129.273.273 0 0 0-.151-.068h-.001a.77.77 0 0 0-.144 0h.003l-.526.038.057.743zm1.368 1.021.526-2.259.541-.042.865 2.152-.381.03-.781-1.931.08-.008-.469 2.027-.381.03zm.35-.507-.027-.343 1.158-.091.027.343-1.158.091zm1.863.705-.053-.712a.296.296 0 0 0 .176-.069.384.384 0 0 0 .103-.156c.023-.065.038-.141.05-.229a2.07 2.07 0 0 0 .019-.267c.002-.087.002-.189.002-.291 0-.163-.002-.325-.007-.487l.001.024-.008-.427 1.44-.107.141 1.859.168-.011.053.712-.366.03-.03-.37-1.345.103.027.37-.37.027zm.518-.758.979-.076-.114-1.509-.735.053c0 .208.003.412.008.616l-.001-.033v.067c0 .184-.006.367-.017.548l.001-.025a.654.654 0 0 1-.123.364l.001-.002zm1.722.217.526-2.259.541-.038.865 2.149-.381.03-.781-1.931.084-.004-.472 2.027-.381.027zm.351-.507-.027-.343 1.158-.091.027.343-1.158.091zm1.859.339-.171-2.206.335-.027.88 1.505.644-1.619.331-.027.168 2.206-.343.027-.107-1.413-.571 1.463-.145.011-.785-1.36.107 1.41-.343.03zm4.388-.335-.373.027-.118-1.554-.907 1.634-.373.027-.168-2.206.373-.027.118 1.554.907-1.634.373-.027.168 2.206z"/></symbol><symbol id="nina-brilevicH" viewBox="0 0 84 32"><path d="M0 11.548V0h2.723l5.03 9.151h.168l-.168-1.404V0h1.898v11.548H6.928l-5.03-9.156H1.73l.168 1.404v7.747H0zm11.952 0V0h1.898v11.548h-1.898zm4.205 0V0h2.723l5.03 9.151h.168l-.168-1.404V0h1.898v11.548h-2.723l-5.03-9.156h-.168l.168 1.404v7.747h-1.898zm11.043 0L30.175 0h4.699l3.048 11.548h-1.976l-.797-2.975h-5.311l-.741 2.975h-1.898zm3.138-4.783h4.351l-1.302-4.952h-1.813l-1.235 4.952zM0 31.573V20.031h5.693c1.089 0 1.948.281 2.582.859.589.498.96 1.237.96 2.062v.051V23c0 .842-.292 1.493-.87 1.942a2.821 2.821 0 0 1-.859.449v.079c.405.086.762.242 1.077.456l-.011-.007c.719.517 1.078 1.302 1.078 2.358l.001.091c0 .918-.408 1.741-1.053 2.297l-.004.003c-.707.606-1.701.904-2.987.904H-.001zm1.898-6.843h3.711c.528 0 .932-.129 1.218-.393s.432-.634.432-1.106c0-.421-.146-.752-.432-1.011a1.773 1.773 0 0 0-1.224-.376h.005-3.711v2.886zm0 5.03h3.627c1.432 0 2.145-.55 2.145-1.651 0-1.095-.713-1.645-2.145-1.645H1.898v3.29zm9.734 1.813V20.031h5.03c1.364 0 2.448.348 3.251 1.055a3.376 3.376 0 0 1 1.202 2.585l-.001.074v-.004c0 .842-.264 1.594-.792 2.246a3.917 3.917 0 0 1-2.152 1.298l-.026.005 2.886 4.284h-2.223l-2.723-4.121H13.53v4.121h-1.898zm1.898-5.934h3.133c1.651 0 2.47-.634 2.47-1.898s-.82-1.898-2.47-1.898h-3.138v3.795zm9.488 5.934V20.031h1.898v11.542h-1.898zm4.21 0V20.031h1.892v9.724h5.855v1.813h-7.747zm8.904 0V20.031h8.331v1.813h-6.434v2.97h5.193v1.813h-5.193v3.133h6.434v1.813h-8.331zm9.156-11.542h1.982l2.47 9.724h1.819l2.392-9.729h1.898l-2.886 11.542h-4.705l-2.97-11.542zm11.958 11.542V20.031h1.898v11.542h-1.898zm5.491-1.398a5.821 5.821 0 0 1-1.779-4.382v.009a5.822 5.822 0 0 1 1.778-4.372l.002-.002a6.046 6.046 0 0 1 4.245-1.731l.171.002h-.008c1.999 0 3.565.702 4.682 2.111.482.59.856 1.289 1.079 2.053l.01.041h-1.898a4.145 4.145 0 0 0-3.752-2.393l-.128.002h.006c-1.241 0-2.257.393-3.032 1.19a4.21 4.21 0 0 0-1.178 3.107v-.008c0 1.274.393 2.307 1.179 3.099a4.062 4.062 0 0 0 3.039 1.19h-.008c1.263 0 2.302-.438 3.116-1.319.356-.368.641-.807.833-1.293l.009-.027h1.898a6.875 6.875 0 0 1-1.211 2.241l.01-.013a5.557 5.557 0 0 1-4.67 2.223h.011c-1.74 0-3.211-.578-4.401-1.729zm11.986 1.398V20.031h1.903v4.783h5.687v-4.783h1.898v11.542h-1.898v-4.946h-5.681v4.946h-1.898z"/></symbol></defs></svg>