<svg width="150" height="57" fill="none" xmlns="http://www.w3.org/2000/svg"><path d="M0 20.567V0h4.848l8.961 16.307h.294l-.294-2.498V0h3.38v20.567H12.34L3.38 4.26h-.294l.294 2.498v13.809H0ZM21.29 20.567V0h3.379v20.567H21.29ZM28.779 20.567V0h4.848l8.961 16.307h.294l-.294-2.498V0h3.379v20.567h-4.848L32.158 4.26h-.294l.294 2.498v13.809h-3.38ZM48.453 20.567 53.74 0h8.374l5.436 20.567h-3.526l-1.41-5.289h-9.461l-1.322 5.289h-3.38Zm5.582-8.52h7.757l-2.321-8.815h-3.232l-2.204 8.814ZM0 56.244V35.677h10.137c1.939 0 3.476.51 4.612 1.528 1.136 1 1.705 2.253 1.705 3.761s-.52 2.664-1.558 3.467c-.43.333-.94.598-1.528.793v.147a5.391 5.391 0 0 1 1.91.794c1.274.92 1.91 2.32 1.91 4.201 0 1.743-.627 3.163-1.88 4.26-1.254 1.078-3.027 1.616-5.318 1.616H0Zm3.379-12.193h6.61c.94 0 1.666-.235 2.175-.705.51-.47.764-1.126.764-1.969 0-.744-.255-1.341-.764-1.792-.51-.45-1.234-.676-2.174-.676H3.379v5.142Zm0 8.961h6.464c2.546 0 3.82-.979 3.82-2.938s-1.274-2.938-3.82-2.938H3.379v5.876ZM20.716 56.244V35.677h8.961c2.43 0 4.359.627 5.789 1.88 1.43 1.254 2.145 2.831 2.145 4.731 0 1.509-.47 2.84-1.41 3.996-.922 1.136-2.214 1.91-3.88 2.321l5.143 7.64h-3.967l-4.848-7.346h-4.554v7.345h-3.379Zm3.379-10.577h5.582c2.939 0 4.408-1.126 4.408-3.379 0-2.252-1.47-3.379-4.408-3.379h-5.582v6.758ZM41.002 56.244V35.677h3.379v20.567h-3.379ZM48.49 56.244V35.677h3.38v17.335H62.3v3.232H48.49ZM64.358 56.244V35.677h14.837v3.232H67.737v5.289h9.255v3.232h-9.255v5.582h11.459v3.232H64.358ZM80.675 35.677H84.2l4.407 17.335h3.232l4.26-17.335h3.379l-5.142 20.567h-8.374l-5.288-20.567ZM101.974 56.244V35.677h3.379v20.567h-3.379ZM111.755 53.747c-2.116-2.057-3.174-4.652-3.174-7.786 0-3.134 1.058-5.73 3.174-7.786 2.115-2.057 4.73-3.085 7.844-3.085 3.565 0 6.347 1.253 8.345 3.76.881 1.078 1.528 2.322 1.939 3.732h-3.379a7.072 7.072 0 0 0-1.469-2.115c-1.43-1.43-3.242-2.145-5.436-2.145-2.213 0-4.015.705-5.406 2.115-1.39 1.41-2.086 3.252-2.086 5.524 0 2.272.696 4.113 2.086 5.524 1.391 1.41 3.193 2.115 5.406 2.115 2.253 0 4.104-.784 5.554-2.35a7.003 7.003 0 0 0 1.498-2.351h3.379c-.509 1.528-1.224 2.85-2.145 3.966-2.037 2.645-4.799 3.967-8.286 3.967-3.114 0-5.729-1.028-7.844-3.085ZM133.106 56.244V35.677h3.379v8.521h10.136v-8.52H150v20.566h-3.379V47.43h-10.136v8.814h-3.379Z" fill="#fff"/></svg>