<svg width="100" height="100" fill="none" xmlns="http://www.w3.org/2000/svg"><g clip-path="url(#a)"><path d="M50 100A50 50 0 1 0 50 0a50 50 0 0 0 0 100Z" fill="#FC4A02"/><path d="M60.08 65.73c5.13-1.1 7.65-9.67 5.61-19.12-2.04-9.46-7.85-16.23-12.99-15.13-5.13 1.11-7.64 9.67-5.6 19.13 2.03 9.46 7.84 16.23 12.98 15.12Z" stroke="#ECE842" stroke-width="1.68" stroke-miterlimit="10"/><path d="M55.02 60.18c1.74-.53 2.29-3.77 1.23-7.25-1.06-3.47-3.33-5.86-5.06-5.33-1.74.53-2.29 3.78-1.23 7.25s3.33 5.86 5.06 5.33Z" fill="#ECE842"/><path d="M51.58 61.07c-.88 4.15-2.94 7.13-5.82 7.74-5.14 1.1-10.95-5.66-12.99-15.12-2.03-9.45.48-18.02 5.61-19.12 2.79-.6 5.78 1.11 8.25 4.33" stroke="#ECE842" stroke-width="1.68" stroke-miterlimit="10"/><path d="M40.7 63.26c1.74-.53 2.29-3.77 1.23-7.25-1.06-3.47-3.33-5.85-5.07-5.32-1.73.53-2.28 3.77-1.22 7.24 1.06 3.48 3.33 5.86 5.06 5.33Z" fill="#ECE842"/><path d="M25.55 30.22 21 25.9l3.5-3.68 4.54 4.31-.73.77-3.83-3.65-2.05 2.17 3.83 3.64-.73.76ZM30.12 25.66l-3.62-5.12 2.12-1.5a4.55 4.55 0 0 1 .43-.25c.32-.17.64-.24.94-.23.3.02.58.1.83.27a2.58 2.58 0 0 1 1.08 1.53 1.71 1.71 0 0 1-.55 1.7l-.2.16-.18.15-1.26.9 1.27 1.78-.86.6Zm-.97-3.2 1.22-.86.16-.12.14-.15a.83.83 0 0 0 .2-.43c.02-.14 0-.29-.04-.42-.04-.14-.1-.27-.18-.37a1.4 1.4 0 0 0-.3-.3.83.83 0 0 0-.86-.13l-.18.08-.16.11-1.23.87 1.22 1.72ZM39.45 20.37l-.97.44-1.8-4.03-.86 5.22-.97.44-2.56-5.72.97-.44 1.8 4.04.86-5.23.97-.43 2.56 5.72ZM40.77 19.96l-1.41-6.1 1.02-.25.65 2.83 1.79-3.4 1.25-.28-1.93 3.6 3.53 2.46-1.3.3-3.24-2.26.66 2.85-1.02.24v.01ZM46 18.77l-.03-.88c.14 0 .26-.01.35-.04.1-.04.18-.1.23-.19.07-.09.12-.22.16-.38a16.6 16.6 0 0 0 .25-1.75l.09-1.15.03-1.06.02-.85 4.2-.14.2 6.27-1.05.03-.17-5.28-2.18.07-.03.7c0 .28-.02.58-.04.9l-.08 1-.13 1c-.05.31-.11.58-.19.83-.07.24-.17.44-.3.6a.99.99 0 0 1-.52.33c-.2.06-.48.06-.82 0H46ZM52.44 18.63l2.98-5.86 1.52.25.92 6.51-1.07-.17-.85-5.84.23.03-2.67 5.26-1.06-.18Zm1.3-1.17.16-.96 3.25.54-.16.96-3.25-.54ZM58.32 20.7l.75-1.88c.19.07.36.09.53.05.17-.05.32-.14.46-.27.15-.13.29-.3.42-.52.13-.2.26-.43.38-.67l.47-.94.45-.97.52-1.09 3.8 1.52-1.95 4.9.43.18-.74 1.89-.98-.39.39-.97-3.56-1.41-.39.97-.97-.38v-.01Zm2.27-1.28 2.57 1.03 1.58-4-1.93-.78-.36.78a16.27 16.27 0 0 1-1.12 2.21 1.94 1.94 0 0 1-.75.77ZM67 23.44l3.94-4.87.81.66-3.32 4.1 1.5 1.22 3.33-4.1.81.66-3.32 4.1 1.51 1.22 3.32-4.1.82.66-3.95 4.87-5.46-4.42ZM73.04 28.58l6.16-2.28.94 1.2-3.74 5.41-.66-.85 3.34-4.87.15.19-5.53 2.05-.66-.85Zm1.75.04.77-.6 2.02 2.6-.78.6-2.01-2.6ZM76.87 33.75l5.58-2.86 1.9 3.73-.87.45-1.43-2.8-1.2.61.7 1.37.1.22.1.24a1.71 1.71 0 0 1-.26 1.73c-.2.23-.43.43-.73.58-.3.15-.6.24-.9.26a1.65 1.65 0 0 1-1.55-.8l-.14-.22-.12-.2-1.18-2.31Zm1.36.48.68 1.34.1.17.1.17c.17.21.37.31.58.31a1.25 1.25 0 0 0 1.04-.54c.12-.17.14-.39.08-.64a1.17 1.17 0 0 0-.07-.19l-.08-.18-.69-1.34-1.74.9ZM79.11 38.07l.84-.25c.03.14.07.24.13.32a.5.5 0 0 0 .24.19c.1.03.24.05.42.05a16.57 16.57 0 0 0 1.76-.2l1.12-.22c.37-.07.71-.16 1.04-.23l.84-.2 1.2 4.02-6 1.81-.3-1 5.06-1.53-.63-2.08-.7.15-.86.19a24.47 24.47 0 0 1-2 .32c-.3.03-.6.04-.84.03-.25 0-.47-.06-.66-.14a.95.95 0 0 1-.45-.4 1.84 1.84 0 0 1-.21-.8v-.03ZM81.07 47.35c-.05-.62.04-1.17.28-1.64.23-.47.58-.84 1.05-1.12a3.76 3.76 0 0 1 1.67-.5c.65-.06 1.22.01 1.74.2a2.73 2.73 0 0 1 1.78 2.5 3 3 0 0 1-.28 1.64 2.7 2.7 0 0 1-1.05 1.13c-.47.28-1.03.45-1.67.5a3.8 3.8 0 0 1-1.73-.21 2.73 2.73 0 0 1-1.78-2.5h-.01Zm.99-.09c.03.43.15.77.37 1.03.2.26.49.45.85.56.35.1.76.14 1.2.1a3.1 3.1 0 0 0 1.18-.3c.33-.17.58-.4.74-.7.16-.3.23-.66.2-1.08a1.74 1.74 0 0 0-.37-1.02 1.7 1.7 0 0 0-.85-.56c-.36-.1-.75-.14-1.21-.1a3.1 3.1 0 0 0-1.18.3 1.7 1.7 0 0 0-.93 1.77ZM81.39 51.36l6.22.77-.13 1.05-2.62-.33-.37 2.95 2.62.32-.13 1.04-6.22-.77.14-1.04 2.62.32.36-2.94-2.62-.33.13-1.04ZM80.57 57.3l5.32 3.87-.49 1.46-6.57-.11.34-1.03 5.9.09-.07.23-4.77-3.47.34-1.03Zm.94 1.48.92.31-1.04 3.12-.93-.31 1.05-3.12ZM76.37 67l5.02 3.75-.63.84-2.33-1.74.83 3.75-.77 1.03-.85-4-4.28.39.8-1.07 3.92-.36-2.34-1.76.63-.84V67ZM71 73.04a2.72 2.72 0 0 1 3-.63c.5.2.97.55 1.4 1.03.44.48.74.98.89 1.5a2.71 2.71 0 0 1-.9 2.92c-.47.42-.95.68-1.47.79-.52.1-1.03.05-1.54-.16-.51-.2-.98-.54-1.42-1.01a3.85 3.85 0 0 1-.88-1.5 2.67 2.67 0 0 1-.01-1.55c.14-.5.45-.96.91-1.4l.01.01Zm.66.74c-.31.28-.5.59-.59.91-.08.33-.06.67.07 1.02s.34.69.66 1.03c.3.34.63.59.96.74.34.15.67.2 1 .16.34-.05.66-.21.98-.5.3-.28.5-.58.58-.91.08-.33.06-.67-.07-1a3.3 3.3 0 0 0-.65-1.04 3.1 3.1 0 0 0-.96-.74 1.72 1.72 0 0 0-1-.16c-.33.05-.65.21-.97.5l-.01-.01ZM68.52 75.41l.45.75a.9.9 0 0 0-.28.22.45.45 0 0 0-.11.27c-.02.11 0 .25.04.41a19.6 19.6 0 0 0 1.1 2.7c.15.34.31.66.47.95l.4.77-3.61 2.14-3.2-5.4.9-.54 2.7 4.55 1.87-1.11-.32-.63a45.25 45.25 0 0 1-.8-1.72c-.13-.32-.26-.64-.37-.95-.1-.3-.19-.56-.24-.8a1.79 1.79 0 0 1-.02-.68c.04-.2.14-.39.3-.54.16-.15.4-.29.72-.4v.01ZM62.35 78.77l2.37 5.8-.97.4-2.37-5.8.97-.4ZM59.96 79.76l1.57 6.06-2.51.66c-.06.01-.14.02-.23.05l-.26.03a1.7 1.7 0 0 1-1.65-.67 2.4 2.4 0 0 1-.4-.87c-.09-.34-.1-.65-.07-.95.05-.3.16-.58.34-.82.18-.24.44-.42.77-.57l.26-.1.22-.06 1.5-.38-.56-2.12 1.02-.26Zm-.22 3.33-1.45.37-.2.06a.7.7 0 0 0-.17.09.83.83 0 0 0-.34.33.93.93 0 0 0-.12.4c0 .15 0 .3.04.42.04.13.09.26.17.39a.9.9 0 0 0 .3.3c.13.09.28.13.46.13.07 0 .13 0 .2-.03l.2-.04 1.44-.38-.53-2.04ZM52.34 81.41l-.22 6.26-1.05-.03.2-5.29-1.94-.06-.2 5.28-1.04-.04.2-5.28-1.95-.07-.19 5.28-1.04-.03.22-6.27 7.02.26ZM44.02 80.82l-1.62 6.05-2.5-.66a3.09 3.09 0 0 1-.47-.16 1.9 1.9 0 0 1-.78-.58 1.66 1.66 0 0 1-.32-.82c-.04-.3-.02-.62.08-.95.08-.34.22-.62.4-.87.2-.24.42-.42.7-.54.27-.12.59-.16.95-.12.08.01.17.02.27.05l.22.05 1.49.4.57-2.12 1.01.27ZM42.2 83.6l-1.44-.39-.19-.04a.66.66 0 0 0-.2-.01.82.82 0 0 0-.46.11c-.12.08-.22.18-.3.3a1.3 1.3 0 0 0-.21.8c0 .14.04.28.1.42a.93.93 0 0 0 .53.4c.07.03.13.05.2.06l1.44.39.55-2.05h-.02ZM34 77.03l.94.46L33 81.46l4.56-2.7.95.47-2.75 5.63-.95-.46 1.94-3.97-4.56 2.7-.95-.47L34 77.03ZM31.18 75.03l-.55.7c.3.16.53.36.7.6.19.24.3.52.36.82.05.3.03.63-.07.96-.1.34-.28.68-.55 1.03s-.56.6-.86.79c-.3.18-.62.28-.93.31a1.92 1.92 0 0 1-1.64-.65l-.3.4-.82-.65.3-.39a2.03 2.03 0 0 1-.7-.6c-.18-.25-.3-.52-.34-.83-.05-.3-.02-.63.07-.97.1-.34.29-.69.55-1.03.27-.35.56-.61.86-.78.3-.19.61-.28.91-.3.3-.04.6.01.88.13.29.11.53.29.76.54l.54-.7.82.63Zm-1.96.83a1.3 1.3 0 0 0-.54-.36.94.94 0 0 0-.53-.01c-.17.04-.33.13-.48.25a2.43 2.43 0 0 0-.72.92c-.09.19-.13.38-.14.56-.01.2.03.37.12.54.08.17.24.32.47.44l1.82-2.34Zm.82.64-1.82 2.34c.17.2.35.3.54.36.18.05.36.04.53 0 .18-.05.34-.15.5-.27a2.7 2.7 0 0 0 .74-.95c.08-.18.13-.36.13-.54a.97.97 0 0 0-.13-.5c-.1-.17-.27-.31-.48-.43l-.01-.01ZM26.85 71.1l-3.97 3.5 1.35 1.53-.74.65-3.38-3.82.74-.66 1.34 1.52 3.96-3.5.7.79ZM21.75 63.77l.54.92-3.8 2.25 5.28.25.54.91-5.4 3.19-.54-.92 3.8-2.24-5.28-.26-.54-.91 5.4-3.2v.01ZM22.29 62.07l-.44.12a.44.44 0 0 0-.18-.27.41.41 0 0 0-.29-.06c-.1.02-.21.05-.33.11l.21.52-1.04.42-.4-1 1.08-.43c.35-.15.65-.17.9-.07.24.1.41.32.49.66ZM19.24 55.25c.09.5.06.95-.08 1.35-.14.4-.37.75-.7 1.03-.32.27-.73.45-1.22.53l-3.87.67-.2-1.04 3.87-.66a1.53 1.53 0 0 0 1.01-.63 1.46 1.46 0 0 0 .21-1.07 1.5 1.5 0 0 0-.56-.95 1.43 1.43 0 0 0-1.16-.24l-3.86.66-.19-1.05 3.89-.66c.48-.1.93-.06 1.33.09.4.14.73.4 1 .73.26.34.43.76.52 1.25h.01ZM18.68 51.24l-6.27.15-.02-1.05 6.27-.15.03 1.04v.01Z" fill="#F1FA3C"/><path d="m15.97 47.96-.73-.06a34.8 34.8 0 0 1 6.87-18.03l.58.43a34.03 34.03 0 0 0-6.73 17.66h.01Z" fill="#EBE845"/></g><defs><clipPath id="a"><path fill="#fff" d="M0 0h100v100H0z"/></clipPath></defs></svg>