<svg aria-hidden="true" style="position: absolute; width: 0; height: 0; overflow: hidden;" version="1.1" xmlns="http://www.w3.org/2000/svg" xmlns:xlink="http://www.w3.org/1999/xlink">
<defs>
<symbol id="example-sticker-mob" viewBox="0 0 32 32">
<path fill="#fc4a02" style="fill: var(--color1, #fc4a02)" d="M16 32c8.837 0 16-7.163 16-16s-7.163-16-16-16v0c-8.837 0-16 7.163-16 16s7.163 16 16 16v0z"></path>
<path fill="none" stroke="#ece842" style="stroke: var(--color2, #ece842)" stroke-linejoin="miter" stroke-linecap="butt" stroke-miterlimit="10" stroke-width="0.5376" d="M19.226 21.034c1.642-0.352 2.448-3.094 1.795-6.118-0.653-3.027-2.512-5.194-4.157-4.842-1.642 0.355-2.445 3.094-1.792 6.122 0.65 3.027 2.509 5.194 4.154 4.838z"></path>
<path fill="#ece842" style="fill: var(--color2, #ece842)" d="M17.606 19.258c0.557-0.17 0.733-1.206 0.394-2.32-0.339-1.11-1.066-1.875-1.619-1.706-0.557 0.17-0.733 1.21-0.394 2.32s1.066 1.875 1.619 1.706z"></path>
<path fill="none" stroke="#ece842" style="stroke: var(--color2, #ece842)" stroke-linejoin="miter" stroke-linecap="butt" stroke-miterlimit="10" stroke-width="0.5376" d="M16.506 19.542c-0.282 1.328-0.941 2.282-1.862 2.477-1.645 0.352-3.504-1.811-4.157-4.838-0.65-3.024 0.154-5.766 1.795-6.118 0.893-0.192 1.85 0.355 2.64 1.386"></path>
<path fill="#ece842" style="fill: var(--color2, #ece842)" d="M13.024 20.243c0.557-0.17 0.733-1.206 0.394-2.32-0.339-1.11-1.066-1.872-1.622-1.702-0.554 0.17-0.73 1.206-0.39 2.317 0.339 1.114 1.066 1.875 1.619 1.706z"></path>
<path fill="#f1fa3c" style="fill: var(--color3, #f1fa3c)" d="M8.176 9.67l-1.456-1.382 1.12-1.178 1.453 1.379-0.234 0.246-1.226-1.168-0.656 0.694 1.226 1.165-0.234 0.243zM9.638 8.211l-1.158-1.638 0.678-0.48c0.038-0.025 0.083-0.052 0.13-0.076l0.008-0.004c0.102-0.054 0.205-0.077 0.301-0.074 0.096 0.006 0.186 0.032 0.266 0.086 0.17 0.113 0.293 0.284 0.344 0.484l0.001 0.006c0.010 0.039 0.015 0.083 0.015 0.128 0 0.166-0.074 0.315-0.191 0.415l-0.001 0.001-0.064 0.051-0.058 0.048-0.403 0.288 0.406 0.57-0.275 0.192zM9.328 7.187l0.39-0.275 0.051-0.038 0.045-0.048c0.033-0.037 0.056-0.084 0.064-0.136l0-0.001c0.006-0.045 0-0.093-0.013-0.134-0.013-0.045-0.032-0.086-0.058-0.118-0.027-0.037-0.059-0.069-0.095-0.095l-0.001-0.001c-0.046-0.039-0.106-0.063-0.171-0.063-0.037 0-0.073 0.008-0.105 0.022l0.002-0.001-0.058 0.026-0.051 0.035-0.394 0.278 0.39 0.55zM12.624 6.518l-0.31 0.141-0.576-1.29-0.275 1.67-0.31 0.141-0.819-1.83 0.31-0.141 0.576 1.293 0.275-1.674 0.31-0.138 0.819 1.83zM13.046 6.387l-0.451-1.952 0.326-0.080 0.208 0.906 0.573-1.088 0.4-0.090-0.618 1.152 1.13 0.787-0.416 0.096-1.037-0.723 0.211 0.912-0.326 0.077v0.003zM14.72 6.006l-0.010-0.282c0.045 0 0.083-0.003 0.112-0.013 0.032-0.013 0.058-0.032 0.074-0.061 0.022-0.029 0.038-0.070 0.051-0.122 0.032-0.154 0.061-0.345 0.078-0.539l0.002-0.021 0.029-0.368 0.010-0.339 0.006-0.272 1.344-0.045 0.064 2.006-0.336 0.010-0.054-1.69-0.698 0.022-0.010 0.224c0 0.090-0.006 0.186-0.013 0.288l-0.026 0.32-0.042 0.32c-0.016 0.099-0.035 0.186-0.061 0.266-0.022 0.077-0.054 0.141-0.096 0.192s-0.099 0.088-0.164 0.105l-0.002 0c-0.064 0.019-0.154 0.019-0.262 0h0.003zM16.781 5.962l0.954-1.875 0.486 0.080 0.294 2.083-0.342-0.054-0.272-1.869 0.074 0.010-0.854 1.683-0.339-0.058zM17.197 5.587l0.051-0.307 1.040 0.173-0.051 0.307-1.040-0.173zM18.662 6.624l0.24-0.602c0.061 0.022 0.115 0.029 0.17 0.016 0.054-0.016 0.102-0.045 0.147-0.086 0.048-0.042 0.093-0.096 0.134-0.166 0.042-0.064 0.083-0.138 0.122-0.214l0.15-0.301 0.144-0.31 0.166-0.349 1.216 0.486-0.624 1.568 0.138 0.058-0.237 0.605-0.314-0.125 0.125-0.31-1.139-0.451-0.125 0.31-0.31-0.122v-0.003zM19.389 6.214l0.822 0.33 0.506-1.28-0.618-0.25-0.115 0.25c-0.115 0.276-0.235 0.508-0.371 0.73l0.013-0.023c-0.056 0.104-0.138 0.188-0.237 0.245l-0.003 0.002zM21.44 7.501l1.261-1.558 0.259 0.211-1.062 1.312 0.48 0.39 1.066-1.312 0.259 0.211-1.062 1.312 0.483 0.39 1.062-1.312 0.262 0.211-1.264 1.558-1.747-1.414zM23.373 9.146l1.971-0.73 0.301 0.384-1.197 1.731-0.211-0.272 1.069-1.558 0.048 0.061-1.77 0.656-0.211-0.272zM23.933 9.158l0.246-0.192 0.646 0.832-0.25 0.192-0.643-0.832zM24.598 10.8l1.786-0.915 0.608 1.194-0.278 0.144-0.458-0.896-0.384 0.195 0.224 0.438 0.032 0.070 0.032 0.077c0.026 0.061 0.041 0.132 0.041 0.207 0 0.132-0.047 0.253-0.125 0.348l0.001-0.001c-0.064 0.074-0.138 0.138-0.234 0.186s-0.192 0.077-0.288 0.083c-0.013 0.001-0.027 0.002-0.042 0.002-0.192 0-0.36-0.102-0.452-0.255l-0.001-0.002-0.045-0.070-0.038-0.064-0.378-0.739zM25.034 10.954l0.218 0.429 0.064 0.109c0.054 0.067 0.118 0.099 0.186 0.099 0.001 0 0.002 0 0.004 0 0.136 0 0.256-0.068 0.328-0.171l0.001-0.001c0.038-0.054 0.045-0.125 0.026-0.205-0.006-0.024-0.014-0.044-0.023-0.063l0.001 0.002-0.026-0.058-0.221-0.429-0.557 0.288zM25.315 12.182l0.269-0.080c0.010 0.045 0.022 0.077 0.042 0.102 0.019 0.028 0.045 0.049 0.076 0.060l0.001 0c0.032 0.010 0.077 0.016 0.134 0.016 0.211-0.013 0.405-0.036 0.595-0.069l-0.032 0.005 0.358-0.070c0.118-0.022 0.227-0.051 0.333-0.074l0.269-0.064 0.384 1.286-1.92 0.579-0.096-0.32 1.619-0.49-0.202-0.666-0.224 0.048-0.275 0.061c-0.164 0.036-0.382 0.072-0.602 0.099l-0.038 0.004c-0.096 0.010-0.192 0.013-0.269 0.010-0.080 0-0.15-0.019-0.211-0.045-0.061-0.027-0.111-0.071-0.143-0.127l-0.001-0.001c-0.040-0.074-0.064-0.162-0.067-0.255l-0-0.001v-0.010zM25.942 15.152c-0.016-0.198 0.013-0.374 0.090-0.525 0.074-0.15 0.186-0.269 0.336-0.358 0.154-0.090 0.336-0.148 0.531-0.16l0.003-0c0.208-0.019 0.39 0.003 0.557 0.064 0.33 0.125 0.561 0.434 0.57 0.799l0 0.001c0.004 0.032 0.006 0.069 0.006 0.107 0 0.152-0.035 0.296-0.098 0.423l0.003-0.006c-0.076 0.152-0.191 0.275-0.332 0.359l-0.004 0.002c-0.15 0.090-0.33 0.144-0.534 0.16-0.040 0.005-0.087 0.007-0.134 0.007-0.151 0-0.295-0.027-0.428-0.077l0.008 0.003c-0.33-0.125-0.561-0.434-0.57-0.799l-0-0.001h-0.003zM26.259 15.123c0.010 0.138 0.048 0.246 0.118 0.33 0.064 0.083 0.157 0.144 0.272 0.179 0.112 0.032 0.243 0.045 0.384 0.032 0.139-0.007 0.267-0.042 0.383-0.099l-0.006 0.003c0.106-0.054 0.186-0.128 0.237-0.224s0.074-0.211 0.064-0.346c-0.004-0.124-0.048-0.237-0.119-0.328l0.001 0.001c-0.069-0.084-0.162-0.147-0.268-0.178l-0.004-0.001c-0.115-0.032-0.24-0.045-0.387-0.032-0.139 0.007-0.267 0.042-0.383 0.099l0.006-0.003c-0.181 0.091-0.303 0.275-0.303 0.488 0 0.028 0.002 0.055 0.006 0.082l-0-0.003zM26.045 16.435l1.99 0.246-0.042 0.336-0.838-0.106-0.118 0.944 0.838 0.102-0.042 0.333-1.99-0.246 0.045-0.333 0.838 0.102 0.115-0.941-0.838-0.106 0.042-0.333zM25.782 18.336l1.702 1.238-0.157 0.467-2.102-0.035 0.109-0.33 1.888 0.029-0.022 0.074-1.526-1.11 0.109-0.33zM26.083 18.81l0.294 0.099-0.333 0.998-0.298-0.099 0.336-0.998zM24.438 21.44l1.606 1.2-0.202 0.269-0.746-0.557 0.266 1.2-0.246 0.33-0.272-1.28-1.37 0.125 0.256-0.342 1.254-0.115-0.749-0.563 0.202-0.269v0.003zM22.72 23.373c0.159-0.165 0.381-0.267 0.628-0.267 0.12 0 0.234 0.024 0.338 0.068l-0.006-0.002c0.16 0.064 0.31 0.176 0.448 0.33 0.141 0.154 0.237 0.314 0.285 0.48 0.025 0.077 0.039 0.165 0.039 0.256 0 0.274-0.127 0.518-0.325 0.677l-0.002 0.001c-0.15 0.134-0.304 0.218-0.47 0.253-0.166 0.032-0.33 0.016-0.493-0.051-0.163-0.064-0.314-0.173-0.454-0.323-0.125-0.132-0.222-0.293-0.279-0.471l-0.002-0.009c-0.024-0.076-0.038-0.163-0.038-0.253 0-0.087 0.013-0.17 0.037-0.249l-0.002 0.006c0.045-0.16 0.144-0.307 0.291-0.448l0.003 0.003zM22.931 23.61c-0.099 0.090-0.16 0.189-0.189 0.291-0.026 0.106-0.019 0.214 0.022 0.326s0.109 0.221 0.211 0.33c0.096 0.109 0.202 0.189 0.307 0.237 0.109 0.048 0.214 0.064 0.32 0.051 0.109-0.016 0.211-0.067 0.314-0.16 0.096-0.090 0.16-0.186 0.186-0.291s0.019-0.214-0.022-0.32c-0.051-0.129-0.121-0.239-0.209-0.334l0.001 0.001c-0.085-0.097-0.187-0.176-0.302-0.234l-0.006-0.003c-0.071-0.036-0.155-0.057-0.243-0.057-0.027 0-0.054 0.002-0.080 0.006l0.003-0c-0.106 0.016-0.208 0.067-0.31 0.16l-0.003-0.003zM21.926 24.131l0.144 0.24c-0.035 0.018-0.065 0.042-0.089 0.070l-0 0c-0.020 0.023-0.033 0.053-0.035 0.086l-0 0c-0.006 0.035 0 0.080 0.013 0.131 0.11 0.34 0.23 0.626 0.368 0.9l-0.016-0.036c0.048 0.109 0.099 0.211 0.15 0.304l0.128 0.246-1.155 0.685-1.024-1.728 0.288-0.173 0.864 1.456 0.598-0.355-0.102-0.202c-0.051-0.095-0.137-0.276-0.219-0.459l-0.037-0.092c-0.042-0.102-0.083-0.205-0.118-0.304-0.032-0.096-0.061-0.179-0.077-0.256-0.009-0.038-0.014-0.081-0.014-0.125 0-0.033 0.003-0.065 0.008-0.096l-0 0.003c0.013-0.064 0.045-0.125 0.096-0.173s0.128-0.093 0.23-0.128v0.003zM19.952 25.206l0.758 1.856-0.31 0.128-0.758-1.856 0.31-0.128zM19.187 25.523l0.502 1.939-0.803 0.211c-0.019 0.003-0.045 0.006-0.074 0.016l-0.083 0.010c-0.027 0.005-0.058 0.007-0.090 0.007-0.179 0-0.338-0.087-0.437-0.22l-0.001-0.001c-0.058-0.079-0.103-0.172-0.127-0.273l-0.001-0.005c-0.029-0.109-0.032-0.208-0.022-0.304 0.016-0.096 0.051-0.186 0.109-0.262s0.141-0.134 0.246-0.182l0.083-0.032 0.070-0.019 0.48-0.122-0.179-0.678 0.326-0.083zM19.117 26.589l-0.464 0.118-0.064 0.019c-0.021 0.008-0.039 0.017-0.055 0.029l0.001-0c-0.046 0.024-0.083 0.060-0.108 0.104l-0.001 0.001c-0.021 0.037-0.035 0.081-0.038 0.127l-0 0.001c0 0.048 0 0.096 0.013 0.134 0.013 0.042 0.029 0.083 0.054 0.125 0.024 0.039 0.057 0.072 0.095 0.095l0.001 0.001c0.042 0.029 0.090 0.042 0.147 0.042 0.022 0 0.042 0 0.064-0.010l0.064-0.013 0.461-0.122-0.17-0.653zM16.749 26.051l-0.070 2.003-0.336-0.010 0.064-1.693-0.621-0.019-0.064 1.69-0.333-0.013 0.064-1.69-0.624-0.022-0.061 1.69-0.333-0.010 0.070-2.006 2.246 0.083zM14.086 25.862l-0.518 1.936-0.8-0.211c-0.059-0.015-0.109-0.032-0.157-0.054l0.006 0.003c-0.1-0.041-0.184-0.104-0.249-0.184l-0.001-0.001c-0.055-0.073-0.092-0.163-0.102-0.26l-0-0.002c-0.013-0.096-0.006-0.198 0.026-0.304 0.026-0.109 0.070-0.198 0.128-0.278 0.064-0.077 0.134-0.134 0.224-0.173 0.086-0.038 0.189-0.051 0.304-0.038 0.026 0.003 0.054 0.006 0.086 0.016l0.070 0.016 0.477 0.128 0.182-0.678 0.323 0.086zM13.504 26.752l-0.461-0.125-0.061-0.013c-0.013-0.003-0.027-0.004-0.042-0.004-0.008 0-0.015 0-0.023 0.001l0.001-0c-0.005-0-0.010-0-0.015-0-0.049 0-0.094 0.013-0.133 0.036l0.001-0.001c-0.038 0.026-0.070 0.058-0.096 0.096-0.043 0.064-0.068 0.143-0.068 0.228 0 0.010 0 0.020 0.001 0.029l-0-0.001c0 0.045 0.013 0.090 0.032 0.134 0.039 0.061 0.098 0.107 0.168 0.127l0.002 0.001c0.022 0.010 0.042 0.016 0.064 0.019l0.461 0.125 0.176-0.656h-0.006zM10.88 24.65l0.301 0.147-0.621 1.27 1.459-0.864 0.304 0.15-0.88 1.802-0.304-0.147 0.621-1.27-1.459 0.864-0.304-0.15 0.883-1.802zM9.978 24.010l-0.176 0.224c0.096 0.051 0.17 0.115 0.224 0.192 0.061 0.077 0.096 0.166 0.115 0.262 0.016 0.096 0.010 0.202-0.022 0.307-0.032 0.109-0.090 0.218-0.176 0.33s-0.179 0.192-0.275 0.253c-0.096 0.058-0.198 0.090-0.298 0.099-0.018 0.002-0.040 0.003-0.061 0.003-0.185 0-0.35-0.081-0.463-0.21l-0.001-0.001-0.096 0.128-0.262-0.208 0.096-0.125c-0.090-0.047-0.165-0.112-0.223-0.19l-0.001-0.002c-0.058-0.080-0.096-0.166-0.109-0.266-0.016-0.096-0.006-0.202 0.022-0.31 0.032-0.109 0.093-0.221 0.176-0.33 0.086-0.112 0.179-0.195 0.275-0.25 0.096-0.061 0.195-0.090 0.291-0.096 0.096-0.013 0.192 0.003 0.282 0.042 0.093 0.035 0.17 0.093 0.243 0.173l0.173-0.224 0.262 0.202zM9.35 24.275c-0.046-0.051-0.104-0.091-0.17-0.114l-0.003-0.001c-0.027-0.009-0.058-0.014-0.090-0.014-0.028 0-0.056 0.004-0.081 0.011l0.002-0c-0.054 0.013-0.106 0.042-0.154 0.080-0.098 0.078-0.177 0.176-0.228 0.29l-0.002 0.005c-0.029 0.061-0.042 0.122-0.045 0.179-0.003 0.064 0.010 0.118 0.038 0.173 0.026 0.054 0.077 0.102 0.15 0.141l0.582-0.749zM9.613 24.48l-0.582 0.749c0.054 0.064 0.112 0.096 0.173 0.115 0.058 0.016 0.115 0.013 0.17 0 0.058-0.016 0.109-0.048 0.16-0.086 0.1-0.082 0.179-0.183 0.235-0.299l0.002-0.005c0.026-0.058 0.042-0.115 0.042-0.173 0-0.001 0-0.003 0-0.005 0-0.057-0.015-0.111-0.042-0.157l0.001 0.001c-0.032-0.054-0.086-0.099-0.154-0.138l-0.003-0.003zM8.592 22.752l-1.27 1.12 0.432 0.49-0.237 0.208-1.082-1.222 0.237-0.211 0.429 0.486 1.267-1.12 0.224 0.253zM6.96 20.406l0.173 0.294-1.216 0.72 1.69 0.080 0.173 0.291-1.728 1.021-0.173-0.294 1.216-0.717-1.69-0.083-0.173-0.291 1.728-1.024v0.003zM7.133 19.862l-0.141 0.038c-0.008-0.036-0.029-0.066-0.057-0.086l-0-0c-0.020-0.013-0.045-0.021-0.071-0.021-0.008 0-0.015 0.001-0.022 0.002l0.001-0c-0.032 0.006-0.067 0.016-0.106 0.035l0.067 0.166-0.333 0.134-0.128-0.32 0.346-0.138c0.112-0.048 0.208-0.054 0.288-0.022 0.077 0.032 0.131 0.102 0.157 0.211zM6.157 17.68c0.029 0.16 0.019 0.304-0.026 0.432s-0.118 0.24-0.224 0.33c-0.102 0.086-0.234 0.144-0.39 0.17l-1.238 0.214-0.064-0.333 1.238-0.211c0.134-0.022 0.248-0.096 0.322-0.2l0.001-0.002c0.047-0.072 0.075-0.16 0.075-0.255 0-0.031-0.003-0.061-0.009-0.091l0 0.003c-0.020-0.124-0.085-0.23-0.178-0.303l-0.001-0.001c-0.075-0.055-0.168-0.088-0.27-0.088-0.036 0-0.071 0.004-0.104 0.012l0.003-0.001-1.235 0.211-0.061-0.336 1.245-0.211c0.154-0.032 0.298-0.019 0.426 0.029 0.128 0.045 0.234 0.128 0.32 0.234 0.083 0.109 0.138 0.243 0.166 0.4h0.003zM5.978 16.397l-2.006 0.048-0.006-0.336 2.006-0.048 0.010 0.333v0.003z"></path>
<path fill="#ebe845" style="fill: var(--color4, #ebe845)" d="M5.11 15.347l-0.234-0.019c0.188-2.193 0.985-4.17 2.219-5.797l-0.020 0.028 0.186 0.138c-1.19 1.566-1.971 3.503-2.151 5.611l-0.003 0.040h0.003z"></path>
</symbol>
<symbol id="main-sticker-mob" viewBox="0 0 51 32">
<path fill="#fc4a02" style="fill: var(--color1, #fc4a02)" d="M47.46 14.288c0.598 7.806-9.3 14.929-22.107 15.91s-23.674-4.552-24.272-12.358c-0.598-7.806 9.3-14.929 22.107-15.91s23.674 4.552 24.272 12.358z"></path>
<path fill="#f1fa3c" style="fill: var(--color3, #f1fa3c)" d="M16.381 12.731l-0.069-0.945 0.891-0.8 0.762-0.061 0.392 5.105-0.838 0.061-0.312-4.080-0.823 0.724zM19.844 15.299c-0.496-0.481-0.813-1.144-0.842-1.88l-0-0.005c-0.012-0.095-0.018-0.206-0.018-0.317 0-0.632 0.212-1.215 0.568-1.682l-0.005 0.007c0.375-0.505 0.954-0.841 1.612-0.887l0.007-0c0.055-0.005 0.119-0.008 0.184-0.008 0.605 0 1.152 0.245 1.549 0.64l-0-0c0.494 0.481 0.81 1.144 0.838 1.881l0 0.005c0.012 0.096 0.018 0.206 0.018 0.318 0 0.63-0.21 1.211-0.564 1.677l0.005-0.007c-0.375 0.505-0.954 0.841-1.612 0.887l-0.007 0c-0.056 0.005-0.122 0.008-0.188 0.008-0.603 0-1.149-0.243-1.546-0.637l0 0zM20.187 11.912c-0.255 0.354-0.358 0.83-0.309 1.432 0.046 0.602 0.217 1.059 0.522 1.371 0.305 0.305 0.678 0.442 1.116 0.411 0.429-0.023 0.801-0.245 1.029-0.575l0.003-0.004c0.259-0.35 0.362-0.83 0.316-1.432s-0.221-1.059-0.533-1.368c-0.244-0.258-0.589-0.418-0.971-0.418-0.047 0-0.093 0.002-0.139 0.007l0.006-0c-0.438 0.030-0.785 0.229-1.044 0.575zM25.238 14.884c-0.494-0.481-0.81-1.144-0.838-1.881l-0-0.005c-0.012-0.097-0.019-0.208-0.019-0.322 0-0.63 0.21-1.212 0.565-1.677l-0.005 0.007c0.376-0.504 0.954-0.839 1.612-0.883l0.007-0c0.056-0.005 0.122-0.008 0.188-0.008 0.603 0 1.149 0.243 1.546 0.637l-0-0c0.494 0.481 0.81 1.144 0.838 1.881l0 0.005c0.012 0.097 0.019 0.208 0.019 0.322 0 0.63-0.21 1.212-0.565 1.677l0.005-0.007c-0.375 0.505-0.954 0.841-1.612 0.887l-0.007 0c-0.055 0.005-0.119 0.008-0.184 0.008-0.605 0-1.152-0.245-1.549-0.64l0 0zM25.581 11.501c-0.251 0.35-0.354 0.83-0.309 1.432s0.221 1.059 0.522 1.368c0.305 0.305 0.678 0.446 1.116 0.411 0.428-0.022 0.8-0.243 1.029-0.571l0.003-0.004c0.259-0.354 0.362-0.83 0.316-1.432-0.046-0.606-0.221-1.059-0.53-1.371-0.244-0.258-0.589-0.418-0.972-0.418-0.048 0-0.096 0.003-0.143 0.008l0.006-0.001c-0.438 0.034-0.785 0.229-1.040 0.579zM29.95 13.234l-0.050-0.693 1.128-0.088-0.088-1.128 0.693-0.053 0.088 1.128 1.128-0.084 0.053 0.693-1.128 0.084 0.088 1.131-0.693 0.053-0.088-1.131-1.131 0.088zM8.469 21.276c-0.040 0.006-0.087 0.009-0.135 0.009-0.356 0-0.668-0.193-0.834-0.481l-0.002-0.005c-0.099-0.168-0.152-0.362-0.171-0.59s0.008-0.43 0.076-0.61c0.076-0.179 0.187-0.324 0.335-0.43 0.152-0.11 0.335-0.171 0.556-0.19 0.033-0.004 0.072-0.006 0.111-0.006 0.198 0 0.384 0.056 0.541 0.153l-0.004-0.003c0.179 0.114 0.312 0.274 0.396 0.484l-0.362 0.133c-0.047-0.133-0.132-0.242-0.242-0.319l-0.002-0.001c-0.114-0.076-0.248-0.107-0.411-0.091-0.152 0.008-0.267 0.053-0.366 0.126-0.091 0.076-0.16 0.171-0.198 0.297-0.038 0.122-0.053 0.267-0.042 0.427 0.011 0.164 0.046 0.301 0.103 0.419 0.061 0.114 0.141 0.202 0.248 0.259 0.103 0.061 0.229 0.084 0.377 0.072 0.164-0.011 0.293-0.065 0.392-0.152 0.095-0.091 0.16-0.21 0.19-0.354l0.381 0.076c-0.048 0.217-0.16 0.402-0.315 0.54l-0.001 0.001c-0.16 0.137-0.366 0.217-0.621 0.236zM10.324 21.086l-0.145-1.855-0.712 0.053-0.027-0.343 1.798-0.141 0.027 0.347-0.716 0.053 0.145 1.859-0.37 0.030zM12.587 20.96c-0.040 0.006-0.087 0.009-0.135 0.009-0.356 0-0.668-0.193-0.834-0.481l-0.002-0.005c-0.095-0.164-0.152-0.362-0.171-0.59s0.008-0.43 0.076-0.61c0.076-0.179 0.187-0.324 0.335-0.43 0.152-0.11 0.335-0.171 0.556-0.19 0.221-0.015 0.411 0.019 0.579 0.103 0.164 0.084 0.293 0.21 0.392 0.377 0.099 0.164 0.152 0.362 0.171 0.59s-0.008 0.43-0.080 0.61c-0.069 0.176-0.183 0.323-0.329 0.429l-0.003 0.002c-0.152 0.11-0.335 0.171-0.556 0.19zM12.56 20.617c0.149-0.015 0.267-0.057 0.362-0.13 0.095-0.076 0.16-0.171 0.202-0.297 0.038-0.126 0.053-0.267 0.038-0.427-0.006-0.153-0.043-0.297-0.106-0.425l0.003 0.006c-0.061-0.114-0.141-0.198-0.244-0.259-0.103-0.057-0.229-0.084-0.381-0.076-0.145 0.011-0.267 0.053-0.358 0.13s-0.16 0.171-0.202 0.297c-0.038 0.122-0.053 0.267-0.038 0.427 0.011 0.164 0.046 0.301 0.103 0.419 0.061 0.114 0.141 0.198 0.244 0.259 0.103 0.057 0.229 0.084 0.381 0.076zM13.947 20.811l-0.171-2.206 0.914-0.069c0.026-0.002 0.057-0.003 0.088-0.003s0.061 0.001 0.092 0.003l-0.004-0c0.13 0.008 0.236 0.042 0.324 0.103 0.088 0.057 0.156 0.133 0.206 0.229 0.050 0.099 0.076 0.21 0.088 0.331 0.008 0.118-0.004 0.229-0.038 0.335-0.034 0.099-0.088 0.19-0.168 0.259-0.076 0.072-0.179 0.122-0.305 0.152-0.051 0.011-0.111 0.019-0.172 0.023l-0.003 0-0.541 0.042 0.057 0.773-0.366 0.027zM14.229 19.669l0.526-0.038c0.053-0.006 0.101-0.015 0.147-0.028l-0.006 0.002c0.056-0.018 0.103-0.051 0.137-0.095l0-0.001c0.030-0.038 0.053-0.088 0.065-0.137 0.007-0.032 0.012-0.068 0.012-0.106 0-0.065-0.013-0.127-0.036-0.183l0.001 0.003c-0.018-0.051-0.047-0.094-0.084-0.129l-0-0c-0.041-0.037-0.093-0.061-0.151-0.068l-0.001-0c-0.021-0.002-0.046-0.003-0.070-0.003s-0.049 0.001-0.074 0.003l0.003-0-0.526 0.038 0.057 0.743zM15.931 20.659l-0.168-2.206 0.37-0.027 0.168 2.206-0.37 0.027zM16.758 20.594l-0.168-2.202 0.37-0.030 0.072 0.93 1.044-0.080-0.072-0.93 0.37-0.027 0.168 2.206-0.37 0.027-0.069-0.93-1.048 0.076 0.076 0.933-0.373 0.027zM19.905 20.404c-0.040 0.006-0.087 0.009-0.135 0.009-0.356 0-0.668-0.193-0.834-0.481l-0.002-0.005c-0.095-0.171-0.152-0.366-0.171-0.594-0.015-0.229 0.011-0.43 0.080-0.61 0.072-0.179 0.183-0.324 0.331-0.43 0.152-0.11 0.335-0.171 0.556-0.19 0.221-0.015 0.415 0.019 0.579 0.103s0.297 0.21 0.392 0.377c0.099 0.164 0.156 0.362 0.175 0.59 0.015 0.229-0.011 0.43-0.084 0.61-0.069 0.176-0.183 0.323-0.329 0.429l-0.003 0.002c-0.152 0.107-0.335 0.171-0.556 0.19zM19.878 20.053c0.152-0.011 0.267-0.053 0.362-0.126 0.095-0.076 0.16-0.175 0.202-0.297 0.038-0.126 0.053-0.267 0.042-0.43-0.009-0.151-0.047-0.291-0.11-0.418l0.003 0.006c-0.057-0.114-0.141-0.202-0.244-0.263-0.103-0.057-0.229-0.084-0.377-0.076-0.149 0.011-0.267 0.053-0.362 0.13-0.091 0.076-0.16 0.171-0.198 0.297-0.038 0.122-0.057 0.267-0.042 0.427 0.011 0.164 0.046 0.301 0.107 0.419 0.057 0.114 0.137 0.198 0.24 0.259 0.103 0.057 0.229 0.080 0.381 0.076zM21.265 20.251l-0.171-2.206 0.37-0.027 0.076 1.021 0.804-1.090 0.457-0.038-0.869 1.158 1.101 1.044-0.469 0.038-1.010-0.96 0.076 1.029-0.366 0.030zM24.587 20.042c-0.156 0.011-0.293 0-0.415-0.038-0.212-0.059-0.387-0.191-0.501-0.366l-0.002-0.003 0.305-0.236c0.027 0.057 0.065 0.107 0.114 0.152 0.053 0.050 0.118 0.088 0.198 0.114 0.076 0.030 0.175 0.038 0.29 0.030 0.107-0.011 0.194-0.034 0.263-0.072 0.065-0.038 0.114-0.084 0.145-0.137 0.027-0.057 0.038-0.114 0.034-0.179-0.008-0.076-0.030-0.133-0.076-0.175-0.049-0.041-0.11-0.068-0.177-0.076l-0.002-0c-0.049-0.008-0.106-0.013-0.163-0.013-0.020 0-0.040 0.001-0.060 0.002l0.003-0c0.033-0.001-0.044 0.003-0.121 0.007l-0.1 0.004h-0.027l-0.027-0.347 0.057-0.004 0.084-0.008 0.072-0.008c0.114-0.015 0.206-0.050 0.278-0.103 0.059-0.045 0.098-0.116 0.098-0.195 0-0.012-0.001-0.023-0.002-0.035l0 0.001c-0.004-0.088-0.051-0.165-0.121-0.209l-0.001-0.001c-0.072-0.046-0.168-0.065-0.282-0.057-0.194 0.011-0.36 0.119-0.452 0.275l-0.001 0.003-0.278-0.244c0.169-0.218 0.424-0.362 0.713-0.381l0.003-0c0.095-0.008 0.19 0 0.282 0.015 0.091 0.019 0.179 0.050 0.255 0.095 0.159 0.096 0.266 0.265 0.274 0.46l0 0.001c0.008 0.103-0.008 0.198-0.038 0.286s-0.076 0.16-0.145 0.221c0.103 0.030 0.183 0.084 0.24 0.16 0.061 0.076 0.095 0.175 0.103 0.297 0.011 0.141-0.015 0.267-0.088 0.381-0.074 0.113-0.175 0.204-0.293 0.265l-0.004 0.002c-0.126 0.065-0.27 0.103-0.434 0.114zM26.404 19.859l-0.171-2.21 1.79-0.133 0.168 2.206-0.37 0.027-0.141-1.859-1.051 0.080 0.145 1.859-0.37 0.030zM29.554 19.661c-0.040 0.006-0.087 0.009-0.135 0.009-0.356 0-0.668-0.193-0.834-0.481l-0.002-0.005c-0.095-0.164-0.152-0.362-0.171-0.59-0.015-0.229 0.011-0.43 0.080-0.61 0.072-0.179 0.183-0.324 0.331-0.43 0.152-0.11 0.335-0.171 0.556-0.19 0.221-0.015 0.411 0.019 0.579 0.103 0.164 0.084 0.297 0.21 0.392 0.377 0.099 0.164 0.152 0.362 0.171 0.59s-0.008 0.43-0.076 0.61c-0.070 0.177-0.186 0.323-0.332 0.429l-0.003 0.002c-0.152 0.11-0.335 0.171-0.556 0.19zM29.528 19.318c0.152-0.015 0.267-0.057 0.362-0.13 0.095-0.076 0.16-0.171 0.202-0.297 0.038-0.126 0.053-0.267 0.042-0.43-0.009-0.151-0.047-0.291-0.11-0.418l0.003 0.006c-0.057-0.114-0.141-0.202-0.244-0.263-0.103-0.057-0.229-0.084-0.377-0.076-0.149 0.011-0.267 0.053-0.362 0.13-0.091 0.076-0.16 0.171-0.202 0.297-0.038 0.122-0.053 0.267-0.038 0.427 0.011 0.164 0.046 0.301 0.103 0.419 0.061 0.114 0.141 0.198 0.244 0.259 0.103 0.057 0.229 0.084 0.381 0.076zM30.914 19.509l-0.171-2.202 0.914-0.069c0.026-0.002 0.057-0.003 0.088-0.003s0.061 0.001 0.092 0.003l-0.004-0c0.001 0 0.001 0 0.002 0 0.232 0 0.432 0.136 0.526 0.332l0.002 0.003c0.050 0.095 0.076 0.206 0.088 0.324 0.008 0.122-0.004 0.232-0.038 0.335-0.030 0.103-0.088 0.19-0.168 0.263-0.076 0.072-0.179 0.122-0.305 0.152-0.051 0.011-0.111 0.019-0.172 0.023l-0.003 0-0.541 0.042 0.061 0.773-0.37 0.027zM31.196 18.366l0.526-0.038c0.053-0.006 0.101-0.015 0.147-0.028l-0.006 0.002c0.055-0.017 0.102-0.049 0.137-0.091l0-0c0.030-0.038 0.053-0.088 0.065-0.137 0.007-0.032 0.012-0.068 0.012-0.106 0-0.065-0.013-0.127-0.036-0.183l0.001 0.003c-0.018-0.051-0.047-0.094-0.084-0.129l-0-0c-0.041-0.037-0.093-0.061-0.151-0.068l-0.001-0c-0.021-0.002-0.046-0.003-0.070-0.003s-0.049 0.001-0.074 0.003l0.003-0-0.526 0.038 0.057 0.743zM32.564 19.387l0.526-2.259 0.541-0.042 0.865 2.152-0.381 0.030-0.781-1.931 0.080-0.008-0.469 2.027-0.381 0.030zM32.914 18.88l-0.027-0.343 1.158-0.091 0.027 0.343-1.158 0.091zM34.777 19.585l-0.053-0.712c0.067-0.003 0.128-0.029 0.176-0.069l-0 0c0.046-0.038 0.076-0.091 0.103-0.156 0.023-0.065 0.038-0.141 0.050-0.229 0.011-0.084 0.019-0.175 0.019-0.267 0.002-0.087 0.002-0.189 0.002-0.291 0-0.163-0.002-0.325-0.007-0.487l0.001 0.024-0.008-0.427 1.44-0.107 0.141 1.859 0.168-0.011 0.053 0.712-0.366 0.030-0.030-0.37-1.345 0.103 0.027 0.37-0.37 0.027zM35.295 18.827l0.979-0.076-0.114-1.509-0.735 0.053c0 0.208 0.003 0.412 0.008 0.616l-0.001-0.033c0 0.020 0 0.044 0 0.067 0 0.184-0.006 0.367-0.017 0.548l0.001-0.025c-0.004 0.136-0.049 0.261-0.123 0.364l0.001-0.002zM37.017 19.044l0.526-2.259 0.541-0.038 0.865 2.149-0.381 0.030-0.781-1.931 0.084-0.004-0.472 2.027-0.381 0.027zM37.368 18.537l-0.027-0.343 1.158-0.091 0.027 0.343-1.158 0.091zM39.227 18.876l-0.171-2.206 0.335-0.027 0.88 1.505 0.644-1.619 0.331-0.027 0.168 2.206-0.343 0.027-0.107-1.413-0.571 1.463-0.145 0.011-0.785-1.36 0.107 1.41-0.343 0.030zM43.615 18.541l-0.373 0.027-0.118-1.554-0.907 1.634-0.373 0.027-0.168-2.206 0.373-0.027 0.118 1.554 0.907-1.634 0.373-0.027 0.168 2.206z"></path>
</symbol>
<symbol id="nina-brilevicH" viewBox="0 0 84 32">
<path d="M0 11.548v-11.548h2.723l5.030 9.151h0.168l-0.168-1.404v-7.747h1.898v11.548h-2.723l-5.030-9.156h-0.168l0.168 1.404v7.747h-1.898zM11.952 11.548v-11.548h1.898v11.548h-1.898zM16.157 11.548v-11.548h2.723l5.030 9.151h0.168l-0.168-1.404v-7.747h1.898v11.548h-2.723l-5.030-9.156h-0.168l0.168 1.404v7.747h-1.898zM27.2 11.548l2.975-11.548h4.699l3.048 11.548h-1.976l-0.797-2.975h-5.311l-0.741 2.975h-1.898zM30.338 6.765h4.351l-1.302-4.952h-1.813l-1.235 4.952zM0 31.573v-11.542h5.693c1.089 0 1.948 0.281 2.582 0.859 0.589 0.498 0.96 1.237 0.96 2.062 0 0.017-0 0.034-0 0.051l0-0.003c0 0.842-0.292 1.493-0.87 1.942-0.241 0.191-0.528 0.337-0.859 0.449v0.079c0.405 0.086 0.762 0.242 1.077 0.456l-0.011-0.007c0.719 0.517 1.078 1.302 1.078 2.358 0.001 0.027 0.001 0.059 0.001 0.091 0 0.918-0.408 1.741-1.053 2.297l-0.004 0.003c-0.707 0.606-1.701 0.904-2.987 0.904h-5.608zM1.898 24.73h3.711c0.528 0 0.932-0.129 1.218-0.393s0.432-0.634 0.432-1.106c0-0.421-0.146-0.752-0.432-1.011-0.3-0.237-0.684-0.38-1.101-0.38-0.041 0-0.082 0.001-0.123 0.004l0.005-0h-3.711v2.886zM1.898 29.76h3.627c1.432 0 2.145-0.55 2.145-1.651 0-1.095-0.713-1.645-2.145-1.645h-3.627v3.29zM11.632 31.573v-11.542h5.030c1.364 0 2.448 0.348 3.251 1.055 0.737 0.624 1.202 1.55 1.202 2.585 0 0.025-0 0.050-0.001 0.074l0-0.004c0 0.842-0.264 1.594-0.792 2.246-0.55 0.648-1.299 1.112-2.152 1.298l-0.026 0.005 2.886 4.284h-2.223l-2.723-4.121h-2.554v4.121h-1.898zM13.53 25.639h3.133c1.651 0 2.47-0.634 2.47-1.898s-0.82-1.898-2.47-1.898h-3.138v3.795zM23.018 31.573v-11.542h1.898v11.542h-1.898zM27.228 31.573v-11.542h1.892v9.724h5.855v1.813h-7.747zM36.132 31.573v-11.542h8.331v1.813h-6.434v2.97h5.193v1.813h-5.193v3.133h6.434v1.813h-8.331zM45.288 20.031h1.982l2.47 9.724h1.819l2.392-9.729h1.898l-2.886 11.542h-4.705l-2.97-11.542zM57.246 31.573v-11.542h1.898v11.542h-1.898zM62.737 30.175c-1.1-1.063-1.782-2.552-1.782-4.199 0-0.061 0.001-0.122 0.003-0.183l-0 0.009c-0.002-0.052-0.003-0.113-0.003-0.174 0-1.648 0.683-3.136 1.781-4.198l0.002-0.002c1.093-1.071 2.592-1.731 4.245-1.731 0.057 0 0.114 0.001 0.171 0.002l-0.008-0c1.999 0 3.565 0.702 4.682 2.111 0.482 0.59 0.856 1.289 1.079 2.053l0.010 0.041h-1.898c-0.674-1.425-2.1-2.393-3.752-2.393-0.043 0-0.085 0.001-0.128 0.002l0.006-0c-1.241 0-2.257 0.393-3.032 1.19-0.732 0.759-1.182 1.793-1.182 2.932 0 0.059 0.001 0.117 0.004 0.175l-0-0.008c0 1.274 0.393 2.307 1.179 3.099 0.737 0.737 1.756 1.193 2.881 1.193 0.053 0 0.106-0.001 0.158-0.003l-0.008 0c1.263 0 2.302-0.438 3.116-1.319 0.356-0.368 0.641-0.807 0.833-1.293l0.009-0.027h1.898c-0.278 0.856-0.687 1.597-1.211 2.241l0.010-0.013c-1.025 1.358-2.635 2.227-4.449 2.227-0.074 0-0.148-0.001-0.221-0.004l0.011 0c-1.74 0-3.211-0.578-4.401-1.729zM74.723 31.573v-11.542h1.903v4.783h5.687v-4.783h1.898v11.542h-1.898v-4.946h-5.681v4.946h-1.898z"></path>
</symbol>
</defs>
</svg>
