<svg width="133" height="84" fill="none" xmlns="http://www.w3.org/2000/svg"><ellipse cx="63.71" cy="42.17" rx="61.05" ry="37.21" transform="rotate(-4.38 63.7 42.17)" fill="#FC4A02"/><path d="m43 33.42-.18-2.48 2.34-2.1 2-.16 1.03 13.4-2.2.16-.82-10.71-2.16 1.9Zm9.09 6.74a7.28 7.28 0 0 1-2.21-4.95 7.28 7.28 0 0 1 1.43-5.23 5.76 5.76 0 0 1 4.25-2.33 5.76 5.76 0 0 1 4.55 1.66 7.28 7.28 0 0 1 2.2 4.95 7.28 7.28 0 0 1-1.42 5.22 5.76 5.76 0 0 1-4.25 2.33 5.76 5.76 0 0 1-4.55-1.65Zm.9-8.89c-.67.93-.94 2.18-.81 3.76.12 1.58.57 2.78 1.37 3.6.8.8 1.78 1.16 2.93 1.08a3.51 3.51 0 0 0 2.71-1.52c.68-.92.95-2.18.83-3.76-.12-1.58-.58-2.78-1.4-3.59a3.51 3.51 0 0 0-2.9-1.08c-1.15.08-2.06.6-2.74 1.51Zm13.26 7.8a7.28 7.28 0 0 1-2.2-4.95 7.28 7.28 0 0 1 1.42-5.23 5.76 5.76 0 0 1 4.25-2.32 5.76 5.76 0 0 1 4.55 1.65 7.28 7.28 0 0 1 2.2 4.95 7.28 7.28 0 0 1-1.42 5.23 5.76 5.76 0 0 1-4.25 2.33 5.76 5.76 0 0 1-4.55-1.66Zm.9-8.88c-.66.92-.93 2.18-.81 3.76.12 1.58.58 2.78 1.37 3.59.8.8 1.78 1.17 2.93 1.08a3.51 3.51 0 0 0 2.71-1.51c.68-.93.95-2.18.83-3.76-.12-1.59-.58-2.78-1.39-3.6a3.51 3.51 0 0 0-2.91-1.08c-1.15.09-2.06.6-2.73 1.52Zm11.47 4.55-.13-1.82 2.96-.23-.23-2.96 1.82-.14.23 2.96 2.96-.22.14 1.82-2.96.22.23 2.97-1.82.14-.23-2.97-2.97.23ZM22.23 55.85a2.53 2.53 0 0 1-2.55-1.25c-.26-.44-.4-.95-.45-1.55-.05-.6.02-1.13.2-1.6.2-.47.49-.85.88-1.13.4-.29.88-.45 1.46-.5a2.7 2.7 0 0 1 1.7.38c.47.3.82.72 1.04 1.27l-.95.35a1.7 1.7 0 0 0-.64-.84c-.3-.2-.65-.28-1.08-.24-.4.02-.7.14-.96.33-.24.2-.42.45-.52.78-.1.32-.14.7-.11 1.12.03.43.12.79.27 1.1.16.3.37.53.65.68.27.16.6.22.99.19.43-.03.77-.17 1.03-.4.25-.24.42-.55.5-.93l1 .2a2.65 2.65 0 0 1-.83 1.42c-.42.36-.96.57-1.63.62Zm4.87-.5-.38-4.87-1.87.14-.07-.9 4.72-.37.07.91-1.88.14.38 4.88-.97.08Zm5.94-.33a2.53 2.53 0 0 1-2.55-1.25c-.25-.43-.4-.95-.45-1.55-.05-.6.02-1.13.2-1.6.2-.47.49-.85.88-1.13.4-.29.88-.45 1.46-.5.58-.04 1.08.05 1.52.27.43.22.77.55 1.03.99.26.43.4.95.45 1.55.05.6-.02 1.13-.21 1.6a2.5 2.5 0 0 1-.87 1.13c-.4.29-.88.45-1.46.5Zm-.07-.9c.39-.04.7-.15.95-.34.25-.2.42-.45.53-.78.1-.33.14-.7.1-1.12a2.83 2.83 0 0 0-.27-1.1c-.16-.3-.37-.52-.64-.68-.27-.15-.6-.22-1-.2-.38.03-.7.14-.94.34s-.42.45-.53.78c-.1.32-.14.7-.1 1.12.03.43.12.79.27 1.1.16.3.37.52.64.68.27.15.6.22 1 .2Zm3.64.51-.45-5.79 2.4-.18a3.65 3.65 0 0 1 .46 0c.34.02.62.11.85.27.23.15.41.35.54.6.13.26.2.55.23.87.02.31-.01.6-.1.88-.09.26-.23.5-.44.68-.2.19-.47.32-.8.4a3 3 0 0 1-.46.06l-1.42.11.15 2.03-.96.07Zm.74-3 1.38-.1a2.3 2.3 0 0 0 .37-.07.73.73 0 0 0 .36-.25c.08-.1.14-.23.17-.36a1.27 1.27 0 0 0-.06-.75.86.86 0 0 0-.22-.34.73.73 0 0 0-.4-.18 2.31 2.31 0 0 0-.37 0l-1.38.1.15 1.95Zm4.47 2.6-.44-5.79.97-.07.44 5.79-.97.07Zm2.17-.17-.44-5.78.97-.08.19 2.44 2.74-.21-.19-2.44.97-.07.44 5.79-.97.07-.18-2.44-2.75.2.2 2.45-.98.07Zm8.26-.5a2.53 2.53 0 0 1-2.55-1.25c-.25-.45-.4-.96-.45-1.56-.04-.6.03-1.13.21-1.6.19-.47.48-.85.87-1.13.4-.29.88-.45 1.46-.5.58-.04 1.09.05 1.52.27.43.22.78.55 1.03.99.26.43.41.95.46 1.55.04.6-.03 1.13-.22 1.6a2.5 2.5 0 0 1-.87 1.13c-.4.28-.88.45-1.46.5Zm-.07-.92c.4-.03.7-.14.95-.33.25-.2.42-.46.53-.78.1-.33.14-.7.11-1.13a2.83 2.83 0 0 0-.28-1.08c-.15-.3-.37-.53-.64-.69-.27-.15-.6-.22-.99-.2-.39.03-.7.14-.95.34-.24.2-.42.45-.52.78-.1.32-.15.7-.11 1.12.03.43.12.79.28 1.1.15.3.36.52.63.68.27.15.6.21 1 .2Zm3.64.52-.45-5.79.97-.07.2 2.68 2.11-2.86 1.2-.1-2.28 3.04 2.89 2.74-1.23.1-2.65-2.52.2 2.7-.96.08Zm8.72-.55c-.41.03-.77 0-1.09-.1a2.29 2.29 0 0 1-1.32-.97l.8-.62c.07.15.17.28.3.4.14.13.31.23.52.3.2.08.46.1.76.08.28-.03.51-.09.69-.19.17-.1.3-.22.38-.36.07-.15.1-.3.09-.47-.02-.2-.08-.35-.2-.46a.9.9 0 0 0-.47-.2 2.7 2.7 0 0 0-.58-.03 109.83 109.83 0 0 1-.58.03h-.07l-.07-.91.15-.01.22-.02.19-.02c.3-.04.54-.13.73-.27a.64.64 0 0 0 .25-.6.68.68 0 0 0-.32-.55c-.19-.12-.44-.17-.74-.15a1.47 1.47 0 0 0-1.19.73l-.73-.64a2.58 2.58 0 0 1 1.88-1c.25-.02.5 0 .74.04.24.05.47.13.67.25a1.48 1.48 0 0 1 .72 1.21c.02.27-.02.52-.1.75-.08.23-.2.42-.38.58.27.08.48.22.63.42.16.2.25.46.27.78.03.37-.04.7-.23 1a2 2 0 0 1-.78.7c-.33.17-.71.27-1.14.3Zm4.77-.48-.45-5.8 4.7-.35.44 5.79-.97.07-.37-4.88-2.76.21.38 4.88-.97.08Zm8.27-.52a2.53 2.53 0 0 1-2.55-1.25c-.25-.43-.4-.95-.45-1.55-.04-.6.03-1.13.21-1.6.19-.47.48-.85.87-1.13.4-.29.88-.45 1.46-.5.58-.04 1.08.05 1.52.27.43.22.78.55 1.03.99.26.43.4.95.45 1.55.05.6-.02 1.13-.2 1.6a2.5 2.5 0 0 1-.88 1.13c-.4.29-.88.45-1.46.5Zm-.07-.9c.4-.04.7-.15.95-.34.25-.2.42-.45.53-.78.1-.33.14-.7.11-1.13a2.83 2.83 0 0 0-.28-1.08c-.15-.3-.37-.53-.64-.69-.27-.15-.6-.22-.99-.2-.39.03-.7.14-.95.34-.24.2-.42.45-.53.78-.1.32-.14.7-.1 1.12.03.43.12.79.27 1.1.16.3.37.52.64.68.27.15.6.22 1 .2Zm3.64.5-.45-5.78 2.4-.18a3.73 3.73 0 0 1 .46 0 1.53 1.53 0 0 1 1.39.88c.13.25.2.54.23.85.02.32-.01.61-.1.88-.08.27-.23.5-.44.69-.2.19-.47.32-.8.4a3 3 0 0 1-.46.06l-1.42.11.16 2.03-.97.07Zm.74-3 1.38-.1a2.34 2.34 0 0 0 .37-.07.73.73 0 0 0 .36-.24c.08-.1.14-.23.17-.36a1.27 1.27 0 0 0-.06-.75.86.86 0 0 0-.22-.34.73.73 0 0 0-.4-.18 2.26 2.26 0 0 0-.37 0l-1.38.1.15 1.95Zm3.59 2.68 1.38-5.93 1.42-.11 2.27 5.65-1 .08-2.05-5.07.21-.02-1.23 5.32-1 .08Zm.92-1.33-.07-.9 3.04-.24.07.9-3.04.24Zm4.89 1.85-.14-1.87a.77.77 0 0 0 .46-.18c.12-.1.2-.24.27-.41.06-.17.1-.37.13-.6.03-.22.05-.46.05-.7a44.8 44.8 0 0 0-.01-1.98l-.02-1.12 3.78-.28.37 4.88.44-.03.14 1.87-.96.08-.08-.97-3.53.27.07.97-.97.07Zm1.36-1.99 2.57-.2-.3-3.96-1.93.14a70 70 0 0 0 .02 1.53 23.21 23.21 0 0 1-.04 1.55 1.7 1.7 0 0 1-.32.95Zm4.52.57 1.38-5.93 1.42-.1 2.27 5.64-1 .08-2.05-5.07.22-.01-1.24 5.32-1 .07Zm.92-1.33-.07-.9 3.04-.24.07.9-3.04.24Zm4.88.89-.45-5.79.88-.07 2.31 3.95 1.69-4.25.87-.07.44 5.79-.9.07-.28-3.71-1.5 3.84-.38.03-2.06-3.57.28 3.7-.9.08Zm11.52-.88-.98.07-.31-4.08-2.38 4.29-.98.07-.44-5.79.98-.07.31 4.08 2.38-4.29.98-.07.44 5.79Z" fill="#F1FA3C"/></svg>