<svg width="150" height="57" fill="none" xmlns="http://www.w3.org/2000/svg"><path d="M0 20.57V0h4.85l8.96 16.3h.3l-.3-2.5V0h3.38v20.57h-4.85L3.38 4.26h-.3l.3 2.5v13.8H0ZM21.29 20.57V0h3.38v20.57h-3.38ZM28.78 20.57V0h4.85l8.96 16.3h.3l-.3-2.5V0h3.38v20.57h-4.85L32.16 4.26h-.3l.3 2.5v13.8h-3.38ZM48.45 20.57 53.75 0h8.37l5.43 20.57h-3.52l-1.42-5.3h-9.46l-1.32 5.3h-3.38Zm5.59-8.52h7.75l-2.32-8.82h-3.23l-2.2 8.82ZM0 56.24V35.68h10.14c1.94 0 3.47.5 4.6 1.53a4.8 4.8 0 0 1 1.71 3.76c0 1.5-.52 2.66-1.55 3.46-.43.34-.94.6-1.53.8v.14a5.4 5.4 0 0 1 1.9.8c1.28.92 1.92 2.32 1.92 4.2a5.4 5.4 0 0 1-1.88 4.26c-1.26 1.08-3.03 1.61-5.32 1.61H0Zm3.38-12.19h6.61c.94 0 1.66-.23 2.17-.7s.77-1.13.77-1.97c0-.75-.26-1.34-.77-1.8a3.18 3.18 0 0 0-2.17-.67H3.38v5.14Zm0 8.96h6.46c2.55 0 3.82-.98 3.82-2.94 0-1.95-1.27-2.93-3.82-2.93H3.38V53ZM20.72 56.24V35.68h8.96c2.43 0 4.36.62 5.79 1.88a6.02 6.02 0 0 1 2.14 4.73c0 1.5-.47 2.84-1.41 4a6.96 6.96 0 0 1-3.88 2.32l5.14 7.63H33.5l-4.85-7.34H24.1v7.34h-3.38Zm3.38-10.57h5.58c2.94 0 4.4-1.13 4.4-3.38s-1.46-3.38-4.4-3.38h-5.59v6.76ZM41 56.24V35.68h3.38v20.56H41ZM48.5 56.24V35.68h3.37V53H62.3v3.23H48.5ZM64.36 56.24V35.68H79.2v3.23H67.74v5.29h9.25v3.23h-9.25v5.58H79.2v3.23H64.36ZM80.67 35.68h3.53L88.6 53h3.24l4.26-17.33h3.38l-5.14 20.56h-8.38l-5.29-20.56ZM101.97 56.24V35.68h3.38v20.56h-3.38ZM111.75 53.75a10.4 10.4 0 0 1-3.17-7.79 10.4 10.4 0 0 1 3.17-7.79 10.81 10.81 0 0 1 7.85-3.08c3.56 0 6.35 1.25 8.34 3.76a10.44 10.44 0 0 1 1.94 3.73h-3.38a7.37 7.37 0 0 0-6.9-4.26c-2.21 0-4.02.7-5.4 2.12a7.53 7.53 0 0 0-2.1 5.52c0 2.27.7 4.11 2.1 5.52a7.26 7.26 0 0 0 5.4 2.12c2.25 0 4.1-.78 5.55-2.35a7 7 0 0 0 1.5-2.35h3.38a12.24 12.24 0 0 1-2.14 3.97 9.9 9.9 0 0 1-8.3 3.96c-3.1 0-5.72-1.03-7.84-3.08ZM133.1 56.24V35.68h3.39v8.52h10.13v-8.52H150v20.56h-3.38v-8.81H136.5v8.81h-3.38Z" fill="#fff"/></svg>