<svg width="135" height="76" viewBox="0 0 135 76" fill="none" xmlns="http://www.w3.org/2000/svg">
<ellipse cx="64.5969" cy="38.1934" rx="62.2493" ry="33.126" transform="rotate(-4.37918 64.5969 38.1934)" fill="#FC4A02"/>
<path d="M48.4297 28.504C48.3241 27.1252 48.7297 25.9298 49.6465 24.9175C50.5633 23.9053 51.7892 23.3405 53.324 23.2229C54.8588 23.1054 56.1563 23.477 57.2166 24.3378C58.2768 25.1986 58.8597 26.3184 58.9653 27.6971C59.0599 28.9328 58.6483 30.3054 57.7303 31.8148C57.6372 31.9659 57.5091 32.1719 57.3459 32.433C57.1817 32.6811 57.0706 32.8531 57.0125 32.9491L54.2046 37.2854L51.5707 37.4871L54.2225 33.4179L55.0241 32.6108L55.0167 32.5132C54.9917 32.5282 54.8656 32.5902 54.6384 32.6992C54.3072 32.8161 53.888 32.894 53.3807 32.9329C52.106 33.0305 50.9851 32.6584 50.0179 31.8167C49.0627 30.9609 48.5333 29.8567 48.4297 28.504ZM51.4155 26.2343C50.922 26.7954 50.7072 27.4922 50.7709 28.3247C50.8347 29.1571 51.1536 29.8196 51.7277 30.312C52.3009 30.7914 53.0297 30.9973 53.9141 30.9296C54.7986 30.8618 55.4876 30.5474 55.981 29.9863C56.4735 29.4122 56.6878 28.7089 56.6241 27.8764C56.5603 27.044 56.2419 26.388 55.6688 25.9086C55.0946 25.4162 54.3653 25.2038 53.4809 25.2715C52.5964 25.3393 51.9079 25.6602 51.4155 26.2343ZM62.9609 34.9663C61.6217 33.7082 60.8714 32.0256 60.71 29.9185C60.5487 27.8114 61.034 26.0341 62.1661 24.5868C63.2981 23.1394 64.7421 22.3485 66.4981 22.2141C68.254 22.0796 69.8016 22.6414 71.1409 23.8995C72.4801 25.1576 73.2304 26.8402 73.3918 28.9473C73.5532 31.0545 73.0678 32.8317 71.9357 34.279C70.8037 35.7264 69.3597 36.5173 67.6037 36.6518C65.8478 36.7862 64.3002 36.2244 62.9609 34.9663ZM63.8765 25.908C63.2028 26.8493 62.9278 28.1264 63.0513 29.7392C63.1748 31.3521 63.6411 32.5724 64.4502 33.4C65.2724 34.2268 66.2688 34.5953 67.4394 34.5056C68.61 34.416 69.5321 33.9005 70.2058 32.9593C70.8925 32.017 71.1741 30.7395 71.0505 29.1266C70.927 27.5138 70.4542 26.294 69.6321 25.4673C68.8229 24.6396 67.8331 24.2706 66.6624 24.3602C65.4918 24.4499 64.5632 24.9658 63.8765 25.908ZM75.5794 30.546L75.4375 28.6925L78.4616 28.461L78.23 25.4368L80.0835 25.2949L80.3151 28.319L83.3392 28.0874L83.4812 29.9409L80.457 30.1725L80.6886 33.1966L78.8351 33.3386L78.6035 30.3145L75.5794 30.546Z" fill="white"/>
<path d="M22.7057 53.9681C22.1724 54.0089 21.7097 53.925 21.3176 53.7162C20.9284 53.504 20.6202 53.1956 20.393 52.7911C20.1658 52.3865 20.0284 51.9162 19.9808 51.3802C19.9452 50.8302 20.0107 50.3394 20.1771 49.908C20.3466 49.4731 20.6094 49.1243 20.9654 48.8615C21.3214 48.5988 21.7628 48.4472 22.2896 48.4069C22.8457 48.3643 23.3341 48.4642 23.755 48.7068C24.1791 48.949 24.4777 49.3023 24.6506 49.7666L23.8119 50.0909C23.678 49.7937 23.4793 49.5701 23.216 49.4202C22.9559 49.27 22.6649 49.2073 22.343 49.2319C21.982 49.2596 21.691 49.3669 21.4698 49.5539C21.2484 49.7377 21.0921 49.9819 21.0009 50.2865C20.9095 50.5879 20.8768 50.9289 20.9027 51.3096C20.954 51.8944 21.1252 52.3572 21.4162 52.698C21.7102 53.0353 22.119 53.1839 22.6425 53.1438C22.9872 53.1174 23.2674 53.0174 23.4831 52.8439C23.6985 52.6671 23.8533 52.4247 23.9474 52.1166L24.843 52.2786C24.6985 52.7835 24.4427 53.1809 24.0757 53.4707C23.7086 53.7604 23.252 53.9262 22.7057 53.9681ZM27.2431 53.4734L26.9002 48.9958L25.0663 49.1362L25.0057 48.346L29.5419 47.9987L29.6024 48.7888L27.7685 48.9293L28.1114 53.4069L27.2431 53.4734ZM33.0283 53.1776C32.5048 53.2177 32.0437 53.1336 31.645 52.9253C31.2497 52.7169 30.9335 52.4107 30.6965 52.0069C30.4595 51.6031 30.3202 51.1297 30.2786 50.5867C30.2363 50.0339 30.3033 49.5414 30.4795 49.1093C30.6557 48.6771 30.9252 48.331 31.288 48.071C31.6505 47.8077 32.0887 47.6564 32.6025 47.6171C33.1292 47.5768 33.592 47.6607 33.9906 47.869C34.389 48.0739 34.705 48.3785 34.9388 48.7825C35.1755 49.183 35.3146 49.6548 35.3562 50.1978C35.3983 50.7474 35.333 51.2397 35.1603 51.6749C34.9873 52.1068 34.7196 52.456 34.3574 52.7225C33.9948 52.9858 33.5518 53.1375 33.0283 53.1776ZM32.9652 52.3533C33.5115 52.3114 33.904 52.0982 34.1427 51.7136C34.3815 51.329 34.4787 50.8473 34.4344 50.2684C34.3888 49.6734 34.2176 49.2106 33.9208 48.8801C33.6238 48.5463 33.2054 48.4001 32.6656 48.4414C32.2981 48.4696 32.0021 48.5756 31.7774 48.7596C31.5527 48.9437 31.3931 49.1865 31.2984 49.4881C31.2038 49.7897 31.1711 50.1324 31.2005 50.5161C31.2458 51.1079 31.4188 51.5722 31.7193 51.909C32.0198 52.2458 32.4351 52.3938 32.9652 52.3533ZM39.0627 52.7155C38.5685 52.7533 38.1429 52.6632 37.786 52.4453C37.4289 52.224 37.1465 51.9104 36.9388 51.5044C36.7341 51.0948 36.6117 50.6283 36.5716 50.1048C36.531 49.5747 36.5808 49.0934 36.721 48.6607C36.8645 48.2278 37.0961 47.8781 37.4159 47.6115C37.7389 47.3448 38.1475 47.1925 38.6418 47.1546C39.1295 47.1173 39.5584 47.2071 39.9282 47.4241C40.3011 47.6375 40.5979 47.9468 40.8186 48.3518C41.0393 48.7569 41.1699 49.2228 41.2102 49.7496C41.2505 50.2763 41.1925 50.7567 41.036 51.1906C40.8795 51.6245 40.6335 51.9786 40.298 52.2529C39.9655 52.5237 39.5537 52.6778 39.0627 52.7155ZM36.8066 55.096L36.2239 47.487L36.9995 47.4276L37.2964 51.3053L37.394 51.2978L37.6797 55.0292L36.8066 55.096ZM38.8945 51.9286C39.2425 51.902 39.5235 51.7921 39.7377 51.5991C39.9519 51.4061 40.1044 51.1556 40.1953 50.8478C40.286 50.5366 40.317 50.1941 40.2883 49.8201C40.2599 49.4494 40.1774 49.1189 40.0407 48.8284C39.9072 48.5377 39.7167 48.3136 39.4691 48.1559C39.2248 47.998 38.9238 47.9327 38.5661 47.9601C38.2247 47.9863 37.9482 48.0925 37.7368 48.2787C37.5251 48.4618 37.3755 48.7071 37.2878 49.0147C37.1999 49.3191 37.1709 49.6664 37.2008 50.0566C37.2302 50.4403 37.3101 50.7792 37.4406 51.0734C37.5741 51.3641 37.7612 51.5869 38.002 51.7418C38.2426 51.8935 38.5401 51.9558 38.8945 51.9286ZM42.1043 46.0995L42.0356 45.2021L42.9038 45.1356L42.9726 46.0331L42.1043 46.0995ZM42.5791 52.299L42.1757 47.0312L43.0439 46.9647L43.4473 52.2325L42.5791 52.299ZM44.9059 52.1208L44.5025 46.853L45.3707 46.7865L45.5407 49.0058L48.3112 48.7936L48.1412 46.5743L49.0094 46.5078L49.4129 51.7756L48.5446 51.8421L48.3743 49.6179L45.6038 49.8301L45.7742 52.0543L44.9059 52.1208ZM53.0341 51.6455C52.5106 51.6856 52.0495 51.6015 51.6509 51.3933C51.2555 51.1848 50.9393 50.8787 50.7023 50.4749C50.4653 50.0711 50.326 49.5977 50.2845 49.0546C50.2421 48.5018 50.3091 48.0094 50.4853 47.5772C50.6615 47.145 50.9311 46.799 51.2938 46.539C51.6563 46.2757 52.0945 46.1244 52.6083 46.085C53.1351 46.0447 53.5978 46.1287 53.9964 46.3369C54.3948 46.5419 54.7108 46.8464 54.9446 47.2504C55.1813 47.651 55.3205 48.1228 55.362 48.6658C55.4041 49.2153 55.3388 49.7077 55.1661 50.1429C54.9931 50.5748 54.7254 50.924 54.3632 51.1905C54.0007 51.4538 53.5576 51.6054 53.0341 51.6455ZM52.971 50.8212C53.5173 50.7794 53.9098 50.5661 54.1485 50.1815C54.3873 49.7969 54.4845 49.3152 54.4402 48.7364C54.3946 48.1413 54.2234 47.6785 53.9266 47.348C53.6296 47.0142 53.2112 46.868 52.6714 46.9094C52.304 46.9375 52.0079 47.0436 51.7832 47.2276C51.5585 47.4116 51.3989 47.6544 51.3042 47.9561C51.2096 48.2577 51.1769 48.6003 51.2063 48.984C51.2516 49.5759 51.4246 50.0402 51.7251 50.3769C52.0256 50.7137 52.4409 50.8618 52.971 50.8212ZM56.6332 51.2227L56.2346 45.9545L57.1126 45.8873L57.3068 48.4236L59.3221 45.7181L60.4489 45.6318L58.324 48.4439L61.1254 50.8787L59.9109 50.9717L57.3218 48.6188L57.516 51.1551L56.6332 51.2227ZM65.4627 50.6937C64.9424 50.7336 64.4737 50.6566 64.0566 50.4629C63.6392 50.2659 63.2998 49.9779 63.0386 49.5989L63.6968 49.0971C63.9109 49.3718 64.1572 49.577 64.4358 49.7126C64.7141 49.845 65.024 49.8982 65.3654 49.872C65.7231 49.8446 66.0014 49.7416 66.2003 49.5628C66.399 49.3808 66.4876 49.1499 66.4662 48.8703C66.4503 48.6622 66.386 48.5068 66.2735 48.4042C66.161 48.3016 66.0056 48.2367 65.8072 48.2093C65.6089 48.182 65.3748 48.1787 65.1049 48.1993L64.5586 48.2412L64.5037 47.5242L65.0451 47.4827C65.3865 47.4566 65.6603 47.38 65.8664 47.253C66.0726 47.126 66.1655 46.9292 66.145 46.6625C66.1241 46.3894 66.0081 46.1988 65.7971 46.0906C65.589 45.979 65.3468 45.9338 65.0704 45.9549C64.7777 45.9774 64.5028 46.0606 64.2456 46.2045C63.9882 46.3453 63.7706 46.5157 63.593 46.7157L63.021 46.1659C63.2727 45.8653 63.5701 45.6266 63.9131 45.4499C64.259 45.2697 64.6418 45.1635 65.0613 45.1314C65.3994 45.1055 65.713 45.142 66.0018 45.2409C66.2937 45.3363 66.5314 45.4931 66.7149 45.7113C66.9014 45.9259 67.0073 46.1975 67.0324 46.5259C67.0538 46.8056 67.0078 47.0593 66.8945 47.2871C66.7811 47.5149 66.6038 47.7199 66.3626 47.9019L66.3049 47.5972C66.5235 47.6328 66.7081 47.7151 66.8586 47.8443C67.0122 47.9699 67.1303 48.1244 67.213 48.3077C67.2957 48.4911 67.345 48.6852 67.3606 48.8901C67.387 49.2348 67.3187 49.5377 67.1555 49.7987C66.9953 50.0563 66.7675 50.2635 66.472 50.4202C66.1763 50.5737 65.8399 50.6648 65.4627 50.6937ZM70.4943 50.1612L70.0909 44.8934L74.4076 44.5628L74.811 49.8307L73.9428 49.8971L73.6025 45.4536L71.0222 45.6512L71.3625 50.0947L70.4943 50.1612ZM78.4319 49.7005C77.9084 49.7406 77.4473 49.6566 77.0487 49.4483C76.6533 49.2398 76.3371 48.9337 76.1001 48.5299C75.8632 48.1261 75.7239 47.6527 75.6823 47.1097C75.64 46.5569 75.7069 46.0644 75.8832 45.6322C76.0594 45.2001 76.3289 44.854 76.6917 44.594C77.0542 44.3307 77.4923 44.1794 78.0061 44.1401C78.5329 44.0997 78.9956 44.1837 79.3942 44.3919C79.7926 44.5969 80.1087 44.9014 80.3424 45.3055C80.5791 45.706 80.7183 46.1778 80.7599 46.7208C80.802 47.2704 80.7366 47.7627 80.5639 48.1979C80.3909 48.6298 80.1233 48.979 79.761 49.2455C79.3985 49.5088 78.9555 49.6605 78.4319 49.7005ZM78.3688 48.8762C78.9151 48.8344 79.3076 48.6212 79.5464 48.2366C79.7851 47.8519 79.8823 47.3702 79.838 46.7914C79.7924 46.1964 79.6213 45.7336 79.3245 45.403C79.0274 45.0693 78.609 44.9231 78.0692 44.9644C77.7018 44.9925 77.4057 45.0986 77.1811 45.2826C76.9564 45.4666 76.7967 45.7095 76.7021 46.0111C76.6074 46.3127 76.5748 46.6554 76.6042 47.0391C76.6495 47.6309 76.8224 48.0952 77.123 48.432C77.4235 48.7687 77.8388 48.9168 78.3688 48.8762ZM84.4664 49.2384C83.9721 49.2763 83.5466 49.1862 83.1897 48.9682C82.8326 48.747 82.5502 48.4334 82.3425 48.0273C82.1378 47.6178 82.0153 47.1513 81.9753 46.6278C81.9347 46.0977 81.9845 45.6164 82.1247 45.1837C82.2682 44.7508 82.4998 44.401 82.8195 44.1345C83.1425 43.8677 83.5512 43.7154 84.0454 43.6776C84.5332 43.6402 84.962 43.73 85.3319 43.947C85.7047 44.1605 86.0015 44.4698 86.2223 44.8748C86.443 45.2798 86.5735 45.7457 86.6139 46.2725C86.6542 46.7993 86.5961 47.2797 86.4397 47.7136C86.2832 48.1475 86.0372 48.5016 85.7017 48.7759C85.3692 49.0466 84.9574 49.2008 84.4664 49.2384ZM82.2103 51.619L81.6276 44.0099L82.4031 43.9505L82.7001 47.8282L82.7976 47.8208L83.0834 51.5521L82.2103 51.619ZM84.2982 48.4516C84.6461 48.4249 84.9272 48.3151 85.1414 48.1221C85.3555 47.9291 85.5081 47.6786 85.599 47.3707C85.6896 47.0596 85.7206 46.7171 85.692 46.3431C85.6636 45.9724 85.581 45.6419 85.4443 45.3514C85.3109 45.0607 85.1203 44.8365 84.8728 44.6789C84.6284 44.521 84.3274 44.4557 83.9697 44.4831C83.6283 44.5092 83.3519 44.6154 83.1405 44.8017C82.9288 44.9847 82.7791 45.2301 82.6915 45.5377C82.6036 45.8421 82.5746 46.1894 82.6045 46.5796C82.6339 46.9633 82.7138 47.3022 82.8442 47.5964C82.9777 47.8871 83.1649 48.1099 83.4057 48.2648C83.6462 48.4165 83.9437 48.4787 84.2982 48.4516ZM89.3938 48.8611C89.0004 48.8912 88.6648 48.8449 88.3872 48.7223C88.1126 48.5961 87.898 48.4196 87.7432 48.1927C87.5917 47.9655 87.5051 47.7105 87.4835 47.4276C87.4623 47.1512 87.496 46.9082 87.5846 46.6986C87.6763 46.4855 87.8129 46.305 87.9945 46.157C88.1759 46.0057 88.397 45.8809 88.6576 45.7824C88.9028 45.6949 89.1779 45.615 89.4831 45.5425C89.7913 45.4666 90.1031 45.3953 90.4186 45.3286C90.734 45.262 91.0284 45.1985 91.3018 45.1383L91.0035 45.3427C90.9774 44.8737 90.8565 44.5346 90.641 44.3255C90.4287 44.116 90.0819 44.0297 89.6007 44.0666C89.282 44.091 89.008 44.1856 88.7786 44.3503C88.5521 44.5116 88.4026 44.7585 88.3299 45.0912L87.4866 44.9055C87.578 44.4341 87.7958 44.0527 88.1398 43.7614C88.4838 43.4702 88.9534 43.3017 89.5484 43.2562C90.0264 43.2196 90.4428 43.2743 90.7974 43.4205C91.155 43.5632 91.4218 43.8012 91.5978 44.1344C91.685 44.2913 91.7458 44.4649 91.78 44.6553C91.8139 44.8424 91.8389 45.04 91.8548 45.2481L92.1043 48.5063L91.3337 48.5653L91.2369 47.302L91.4264 47.4053C91.2606 47.8465 91.0073 48.1897 90.6662 48.4349C90.3285 48.6799 89.9044 48.822 89.3938 48.8611ZM89.4699 48.1242C89.782 48.1003 90.0477 48.0244 90.2668 47.8964C90.489 47.7649 90.663 47.6027 90.7889 47.4099C90.9145 47.2139 90.9901 47.0053 91.0157 46.7842C91.0521 46.6179 91.0643 46.4354 91.0523 46.2368C91.0434 46.0347 91.0348 45.88 91.0266 45.7727L91.3391 45.8812C91.0592 45.9419 90.784 46.0006 90.5136 46.0573C90.2432 46.114 89.9877 46.1728 89.747 46.2337C89.5061 46.2914 89.2903 46.3554 89.0994 46.4256C88.9598 46.4821 88.8293 46.551 88.708 46.6322C88.5899 46.7132 88.4962 46.8136 88.4269 46.9334C88.3605 47.0497 88.3337 47.1907 88.3464 47.3566C88.3574 47.4997 88.4036 47.6335 88.4851 47.7581C88.5699 47.8824 88.6918 47.9794 88.8508 48.049C89.0131 48.1183 89.2195 48.1434 89.4699 48.1242ZM93.0719 49.6097L92.9274 47.7221C93.2233 47.6994 93.4273 47.5873 93.5394 47.3857C93.6513 47.1809 93.7292 46.8528 93.7731 46.4013C93.8038 46.1177 93.8231 45.8153 93.8312 45.4941C93.8393 45.173 93.8398 44.8164 93.8327 44.4245C93.8286 44.029 93.8187 43.58 93.8032 43.0775L97.4321 42.7996L97.7806 47.3504L98.2928 47.3112L98.4373 49.1988L97.6081 49.2623L97.5185 48.0917L93.8115 48.3756L93.9011 49.5462L93.0719 49.6097ZM94.2638 47.6197L96.9124 47.4169L96.6188 43.5831L94.6434 43.7344C94.6513 43.966 94.6568 44.2093 94.66 44.4641C94.6629 44.7158 94.6626 44.9676 94.659 45.2198C94.6587 45.4717 94.6524 45.7109 94.6404 45.9375C94.6313 46.1606 94.6156 46.3613 94.5933 46.5397C94.5697 46.7868 94.5367 46.997 94.4944 47.1703C94.452 47.3437 94.3752 47.4935 94.2638 47.6197ZM100.835 47.9849C100.442 48.015 100.106 47.9688 99.8287 47.8461C99.5541 47.7199 99.3394 47.5434 99.1846 47.3165C99.0331 47.0893 98.9465 46.8343 98.9249 46.5514C98.9037 46.275 98.9374 46.032 99.0261 45.8224C99.1177 45.6094 99.2543 45.4288 99.436 45.2808C99.6173 45.1295 99.8384 45.0047 100.099 44.9062C100.344 44.8187 100.619 44.7388 100.925 44.6664C101.233 44.5904 101.545 44.5191 101.86 44.4524C102.175 44.3858 102.47 44.3223 102.743 44.2622L102.445 44.4665C102.419 43.9975 102.298 43.6584 102.082 43.4493C101.87 43.2398 101.523 43.1535 101.042 43.1904C100.723 43.2148 100.449 43.3094 100.22 43.4741C99.9935 43.6354 99.844 43.8823 99.7714 44.215L98.928 44.0294C99.0195 43.5579 99.2372 43.1765 99.5812 42.8853C99.9252 42.594 100.395 42.4255 100.99 42.38C101.468 42.3434 101.884 42.3982 102.239 42.5444C102.596 42.6871 102.863 42.925 103.039 43.2582C103.126 43.4151 103.187 43.5887 103.221 43.7791C103.255 43.9662 103.28 44.1638 103.296 44.3719L103.546 47.6301L102.775 47.6892L102.678 46.4259L102.868 46.5291C102.702 46.9703 102.449 47.3135 102.108 47.5587C101.77 47.8037 101.346 47.9458 100.835 47.9849ZM100.911 47.248C101.223 47.2241 101.489 47.1482 101.708 47.0202C101.93 46.8887 102.104 46.7266 102.23 46.5338C102.356 46.3377 102.432 46.1291 102.457 45.908C102.493 45.7417 102.506 45.5592 102.494 45.3606C102.485 45.1585 102.476 45.0038 102.468 44.8965L102.78 45.005C102.501 45.0657 102.225 45.1244 101.955 45.1811C101.685 45.2378 101.429 45.2966 101.188 45.3576C100.948 45.4153 100.732 45.4792 100.541 45.5494C100.401 45.6059 100.271 45.6748 100.149 45.756C100.031 45.837 99.9376 45.9374 99.8683 46.0572C99.802 46.1735 99.7751 46.3146 99.7878 46.4804C99.7988 46.6235 99.845 46.7573 99.9265 46.8819C100.011 47.0062 100.133 47.1032 100.292 47.1728C100.455 47.2421 100.661 47.2672 100.911 47.248ZM104.809 47.5334L104.406 42.2656L105.152 42.2084L107.465 46.1427L109.152 41.9021L109.898 41.845L110.301 47.1128L109.462 47.177L109.197 43.7188L107.784 47.3055L107.326 47.3407L105.383 44.0109L105.648 47.4691L104.809 47.5334ZM115.572 41.4105L115.975 46.6783L115.136 46.7425L114.839 42.8599L112.376 46.9539L111.659 47.0088L111.255 41.741L112.094 41.6768L112.387 45.5057L114.86 41.465L115.572 41.4105Z" fill="white"/>
</svg>
